<?xml version="1.0" encoding="UTF-8"?>
<svg width="31px" height="32px" viewBox="0 0 31 32" version="1.1" xmlns="http://www.w3.org/2000/svg" xmlns:xlink="http://www.w3.org/1999/xlink">
    <!-- Generator: Sketch 52.6 (67491) - http://www.bohemiancoding.com/sketch -->
    <title>accurate@1,5x</title>
    <desc>Created with Sketch.</desc>
    <g id="Alzagro-Landing" stroke="none" stroke-width="1" fill="none" fill-rule="evenodd">
        <g id="Alzagro_Web_UX_draft" transform="translate(-150.000000, -1073.000000)" fill="#0094CC">
            <g id="The-solution" transform="translate(149.000000, 865.000000)">
                <g id="Feature_1" transform="translate(0.000000, 208.000000)">
                    <g id="accurate" transform="translate(1.000000, 0.000000)">
                        <path d="M17.7461728,8.60444444 C15.1980247,8.60444444 12.6498765,9.5762963 10.7101235,11.5160494 C8.82962963,13.3925926 7.7945679,15.8933333 7.7945679,18.5520988 C7.7945679,21.2069136 8.82962963,23.7076543 10.7101235,25.5881481 C14.5896296,29.4637037 20.902716,29.4637037 24.7822222,25.5881481 C26.662716,23.7076543 27.6977778,21.2069136 27.6977778,18.5520988 C27.6977778,15.8933333 26.662716,13.3925926 24.7822222,11.5160494 C22.8424691,9.5762963 20.294321,8.60444444 17.7461728,8.60444444 Z M17.7461728,31.6365432 C14.3920988,31.6365432 11.0419753,30.3604938 8.48987654,27.8083951 C6.01679012,25.3353086 4.65382716,22.0483951 4.65382716,18.5520988 C4.65382716,15.0518519 6.01679012,11.7649383 8.48987654,9.29580247 C13.5940741,4.18765432 21.8982716,4.18765432 27.0024691,9.29580247 C29.4755556,11.7649383 30.8385185,15.0518519 30.8385185,18.5520988 C30.8385185,22.0483951 29.4755556,25.3353086 27.0024691,27.8083951 C24.4503704,30.3604938 21.1002469,31.6365432 17.7461728,31.6365432 Z" id="Fill-422"></path>
                        <path d="M17.7461728,14.4711111 C16.6992593,14.4711111 15.6562963,14.8661728 14.8582716,15.6641975 C13.2661728,17.2562963 13.2661728,19.8479012 14.8582716,21.44 C16.4503704,23.0281481 19.0419753,23.0281481 20.6340741,21.44 C22.2261728,19.8479012 22.2261728,17.2562963 20.6340741,15.6641975 C19.8360494,14.8661728 18.7930864,14.4711111 17.7461728,14.4711111 Z M17.7461728,25.7698765 C15.897284,25.7698765 14.0444444,25.0666667 12.6380247,23.6602469 C9.82123457,20.8434568 9.82123457,16.2607407 12.6380247,13.4439506 C15.4548148,10.6232099 20.0375309,10.6271605 22.854321,13.4439506 C25.6711111,16.2607407 25.6711111,20.8434568 22.854321,23.6602469 C21.4479012,25.0666667 19.5950617,25.7698765 17.7461728,25.7698765 Z" id="Fill-423"></path>
                        <path d="M17.7066667,19.6780247 C17.3076543,19.6780247 16.9046914,19.5239506 16.5965432,19.2158025 L9.48938272,12.108642 C8.87703704,11.4962963 8.87703704,10.5007407 9.48938272,9.88839506 C10.1017284,9.27604938 11.097284,9.27604938 11.7096296,9.88839506 L18.8167901,16.9955556 C19.4330864,17.6079012 19.4330864,18.6034568 18.8167901,19.2158025 C18.5125926,19.5239506 18.1096296,19.6780247 17.7066667,19.6780247" id="Fill-424"></path>
                        <polyline id="Fill-425" points="6.60148148 1.83703704 6.60148148 6.66469136 1.77382716 6.66469136 7.43506173 12.3298765 12.2666667 12.3298765 12.2666667 7.50222222 6.60148148 1.83703704"></polyline>
                        <path d="M8.08691358,10.7614815 L10.694321,10.7614815 L10.694321,8.15012346 L8.17382716,5.62962963 L8.17382716,6.66469136 C8.17382716,7.53382716 7.47061728,8.23703704 6.60148148,8.23703704 L5.56246914,8.23703704 L8.08691358,10.7614815 Z M12.2666667,13.9022222 L7.43506173,13.9022222 C7.02024691,13.9022222 6.62123457,13.7362963 6.32493827,13.44 L0.659753086,7.77481481 C0.213333333,7.32839506 0.0790123457,6.65283951 0.32,6.06419753 C0.564938272,5.47950617 1.13777778,5.0962963 1.77382716,5.0962963 L5.03308642,5.0962963 L5.03308642,1.83703704 C5.03308642,1.20098765 5.41234568,0.628148148 6.00098765,0.387160494 C6.58567901,0.142222222 7.26123457,0.27654321 7.71160494,0.72691358 L13.3767901,6.39209877 C13.6691358,6.68444444 13.8350617,7.08345679 13.8350617,7.50222222 L13.8350617,12.3298765 C13.8350617,13.1990123 13.1318519,13.9022222 12.2666667,13.9022222 Z" id="Fill-426"></path>
                    </g>
                </g>
            </g>
        </g>
    </g>
</svg>