<?xml version="1.0" encoding="UTF-8"?>
<svg width="32px" height="32px" viewBox="0 0 32 32" version="1.1" xmlns="http://www.w3.org/2000/svg" xmlns:xlink="http://www.w3.org/1999/xlink">
    <!-- Generator: Sketch 52.6 (67491) - http://www.bohemiancoding.com/sketch -->
    <title>iranytu@1,5x</title>
    <desc>Created with Sketch.</desc>
    <g id="Alzagro-Landing" stroke="none" stroke-width="1" fill="none" fill-rule="evenodd">
        <g id="Alzagro_Web_UX_draft" transform="translate(-444.000000, -1074.000000)" fill="#0094CC">
            <g id="The-solution" transform="translate(149.000000, 865.000000)">
                <g id="Feature_1" transform="translate(294.000000, 209.000000)">
                    <g id="iranytu" transform="translate(1.000000, 0.000000)">
                        <path d="M16.1497872,2.76085106 C12.7897872,2.76085106 9.42638298,4.04085106 6.86638298,6.60085106 C1.74978723,11.7174468 1.74978723,20.0476596 6.86638298,25.1642553 C11.986383,30.2842553 20.3131915,30.2842553 25.4331915,25.1642553 C27.9114894,22.6859574 29.2765957,19.387234 29.2765957,15.8808511 C29.2765957,12.3744681 27.9114894,9.07914894 25.4331915,6.60085106 C22.8731915,4.04085106 19.5131915,2.76085106 16.1497872,2.76085106 Z M16.1497872,31.7106383 C12.0953191,31.7106383 8.04085106,30.1651064 4.95319149,27.0774468 C1.96425532,24.0885106 0.316595745,20.1123404 0.316595745,15.8808511 C0.316595745,11.652766 1.96425532,7.67659574 4.95319149,4.68425532 C11.1285106,-1.48765957 21.1744681,-1.48765957 27.346383,4.68425532 C30.3387234,7.67659574 31.9829787,11.652766 31.9829787,15.8808511 C31.9829787,20.1123404 30.3387234,24.0885106 27.346383,27.0774468 C24.2587234,30.1651064 20.2042553,31.7106383 16.1497872,31.7106383 Z" id="Fill-248"></path>
                        <path d="M13.7702128,13.5012766 L11.3770213,20.6570213 L18.5293617,18.2604255 L20.9225532,11.1080851 L13.7702128,13.5012766 Z M9.23234043,24.1531915 C8.87829787,24.1531915 8.53446809,24.013617 8.27574468,23.7582979 C7.91148936,23.3940426 7.78553191,22.8561702 7.94893617,22.3693617 L11.4178723,12.0034043 C11.5540426,11.6017021 11.8706383,11.2851064 12.2723404,11.1489362 L22.6382979,7.68 C23.1251064,7.51659574 23.6629787,7.64595745 24.0238298,8.00680851 C24.3880851,8.37106383 24.5140426,8.90553191 24.3506383,9.39234043 L20.8817021,19.7617021 C20.7489362,20.1634043 20.4323404,20.48 20.027234,20.6161702 L9.6612766,24.0851064 C9.52170213,24.1293617 9.37531915,24.1531915 9.23234043,24.1531915 Z" id="Fill-249"></path>
                        <path d="M16.4834043,15.5778723 C16.4834043,15.5778723 16.333617,15.7140426 16.1497872,15.8808511 C15.9659574,16.0510638 15.8195745,16.187234 15.8195745,16.187234 C15.8195745,16.187234 15.9659574,16.0510638 16.1497872,15.8808511 C16.333617,15.7140426 16.4834043,15.5778723 16.4834043,15.5778723" id="Fill-250"></path>
                        <path d="M15.8195745,17.5421277 C15.4553191,17.5421277 15.0910638,17.3957447 14.8255319,17.106383 C14.5838298,16.8476596 14.4646809,16.5174468 14.4646809,16.1906383 C14.4646809,15.8229787 14.6110638,15.4621277 14.9004255,15.1931915 L15.5642553,14.5804255 C16.1157447,14.0731915 16.9702128,14.107234 17.4774468,14.6587234 C17.7157447,14.9174468 17.8348936,15.2476596 17.8348936,15.5778723 C17.8348936,15.9421277 17.6885106,16.3029787 17.3991489,16.5719149 L16.7353191,17.1812766 C16.4765957,17.4229787 16.146383,17.5421277 15.8195745,17.5421277" id="Fill-251"></path>
                    </g>
                </g>
            </g>
        </g>
    </g>
</svg>