<?xml version="1.0" encoding="UTF-8"?>
<svg width="165px" height="134px" viewBox="0 0 165 134" version="1.1" xmlns="http://www.w3.org/2000/svg" xmlns:xlink="http://www.w3.org/1999/xlink">
    <!-- Generator: Sketch 52.6 (67491) - http://www.bohemiancoding.com/sketch -->
    <title>illustration_3@1,5x</title>
    <desc>Created with Sketch.</desc>
    <defs>
        <linearGradient x1="50%" y1="0%" x2="50%" y2="100%" id="linearGradient-1">
            <stop stop-color="#EED8AC" offset="0%"></stop>
            <stop stop-color="#BC8E4E" offset="100%"></stop>
        </linearGradient>
        <path d="M15.4613571,5.9886 C15.0775714,5.9886 14.6886429,5.8956 14.3344286,5.7006 C12.6977143,4.7988 10.8025714,4.3476 8.90678571,4.3476 C7.01228571,4.3476 5.11778571,4.7982 3.48042857,5.6994 C3.12621429,5.8938 2.73792857,5.9862 2.35478571,5.9862 C1.59428571,5.9862 0.853714286,5.6214 0.440357143,4.9656 C-0.182571429,3.9798 0.169071429,2.7096 1.22528571,2.1282 C3.546,0.8526 6.20164286,0.1782 8.90678571,0.1782 C11.6138571,0.1782 14.2714286,0.8544 16.5915,2.1312 C17.6477143,2.7132 17.9987143,3.9834 17.3757857,4.9692 C16.9617857,5.625 16.2205714,5.9886 15.4613571,5.9886" id="path-2"></path>
        <linearGradient x1="-287.292714%" y1="1725.981%" x2="-287.292714%" y2="-170.218918%" id="linearGradient-4">
            <stop stop-color="#F0CE8A" offset="0%"></stop>
            <stop stop-color="#D8AD72" offset="100%"></stop>
        </linearGradient>
        <path d="M2.23264286,6.37890909 C0.270642857,6.37890909 -0.988714286,3.49936364 1.13914286,2.25718182 C3.50228571,0.878818182 6.16114286,0.189 8.82,0.189 C11.4795,0.189 14.1396429,0.878818182 16.5053571,2.26036364 C18.4480714,3.39563636 17.6226429,6.35154545 15.3752143,6.35154545 C14.9907857,6.35154545 14.6025,6.25290909 14.2482857,6.04609091 C12.6115714,5.089 10.7157857,4.61045455 8.82064286,4.61045455 C6.92614286,4.61045455 5.03164286,5.08836364 3.39364286,6.04481818 C2.99378571,6.27709091 2.601,6.37890909 2.23264286,6.37890909" id="path-5"></path>
        <linearGradient x1="386.958532%" y1="1718.35098%" x2="386.958532%" y2="-169.466434%" id="linearGradient-7">
            <stop stop-color="#F0CE8A" offset="0%"></stop>
            <stop stop-color="#D8AD72" offset="100%"></stop>
        </linearGradient>
        <path d="M25.2553636,8.57571429 C24.8124545,8.57571429 24.3657273,8.44071429 23.9781818,8.15978571 C21.0292727,6.02742857 17.5470909,4.89985714 13.9077273,4.89985714 C10.2728182,4.89985714 6.79318182,6.0255 3.84618182,8.154 C3.45927273,8.43428571 3.01254545,8.56864286 2.57027273,8.56864286 C1.88554545,8.56864286 1.20972727,8.24528571 0.780181818,7.63971429 C0.0738181818,6.642 0.302909091,5.256 1.28990909,4.54178571 C4.98718182,1.872 9.35072727,0.460285714 13.9077273,0.460285714 C18.4691818,0.460285714 22.8365455,1.87457143 26.537,4.5495 C27.5233636,5.26307143 27.7505455,6.65035714 27.0441818,7.64678571 C26.6152727,8.25171429 25.9400909,8.57507143 25.2553636,8.57571429" id="path-8"></path>
        <linearGradient x1="-166.379228%" y1="1407.83428%" x2="-166.379228%" y2="-46.7601394%" id="linearGradient-10">
            <stop stop-color="#F0CE8A" offset="0%"></stop>
            <stop stop-color="#D8AD72" offset="100%"></stop>
        </linearGradient>
        <path d="M2.47672727,8.60014286 C0.630636364,8.60014286 -0.729909091,5.93935714 1.20463636,4.54178571 C4.97636364,1.818 9.39909091,0.457071429 13.8218182,0.457071429 C18.2496364,0.457071429 22.6780909,1.82185714 26.4510909,4.5495 C28.1909091,5.80757143 27.2910909,8.57571429 25.1700909,8.57571429 C24.7138182,8.57571429 24.2696364,8.43364286 23.8922727,8.15978571 C20.8841818,5.98435714 17.3536364,4.89664286 13.8224545,4.89664286 C10.2950909,4.89664286 6.76645455,5.98307143 3.76027273,8.154 C3.32945455,8.46642857 2.891,8.60014286 2.47672727,8.60014286" id="path-11"></path>
        <linearGradient x1="266.111042%" y1="1403.09466%" x2="266.111042%" y2="-46.5619326%" id="linearGradient-13">
            <stop stop-color="#F0CE8A" offset="0%"></stop>
            <stop stop-color="#D8AD72" offset="100%"></stop>
        </linearGradient>
        <path d="M2.2728,15.52704 C1.9152,15.52704 1.5528,15.42784 1.2222,15.2192 C0.237,14.59968 -0.0912,13.2448 0.4902,12.19328 C1.2006,10.90816 1.5756,9.43424 1.5756,7.93088 C1.5756,6.42752 1.2,4.95232 0.489,3.66592 C-0.093,2.61504 0.2352,1.26016 1.2204,0.64 C1.5516,0.432 1.914,0.3328 2.2722,0.3328 C2.9814,0.3328 3.672,0.72064 4.0584,1.41952 C5.1456,3.38624 5.7204,5.63712 5.7204,7.93088 C5.7204,10.22336 5.1456,12.4736 4.0602,14.4384 C3.6732,15.13728 2.982,15.52704 2.2728,15.52704" id="path-14"></path>
        <linearGradient x1="-1332.40884%" y1="568.303778%" x2="-1332.40884%" y2="-205.15985%" id="linearGradient-16">
            <stop stop-color="#F0CE8A" offset="0%"></stop>
            <stop stop-color="#D8AD72" offset="100%"></stop>
        </linearGradient>
        <path d="M3.5616,15.52704 C2.8524,15.52704 2.1612,15.13664 1.7742,14.4384 C0.6888,12.4736 0.1146,10.22272 0.1146,7.93088 C0.1146,5.63712 0.6888,3.3856 1.776,1.41952 C2.1624,0.72128 2.8536,0.3328 3.5634,0.3328 C3.921,0.3328 4.2834,0.43136 4.614,0.63936 C5.5998,1.26016 5.9274,2.61504 5.3454,3.66592 C4.6344,4.95168 4.2588,6.42752 4.2588,7.93088 C4.2588,9.43424 4.6338,10.90816 5.3442,12.19328 C6.1614,13.67168 5.151,15.52704 3.5616,15.52704" id="path-17"></path>
        <linearGradient x1="-569.87723%" y1="568.303778%" x2="-569.87723%" y2="-205.15985%" id="linearGradient-19">
            <stop stop-color="#F0CE8A" offset="0%"></stop>
            <stop stop-color="#D8AD72" offset="100%"></stop>
        </linearGradient>
        <path d="M2.1588,15.52704 C1.8012,15.52704 1.4388,15.42784 1.1082,15.2192 C0.123,14.59968 -0.2052,13.2448 0.3756,12.19328 C1.0866,10.90816 1.4616,9.43424 1.4616,7.93088 C1.4616,6.42624 1.086,4.95232 0.3744,3.66592 C-0.207,2.61504 0.1206,1.26016 1.1064,0.64 C1.437,0.432 1.8,0.3328 2.1582,0.3328 C2.8668,0.3328 3.5574,0.72064 3.9438,1.41952 C5.0316,3.38496 5.6058,5.63648 5.6058,7.93088 C5.6058,10.22336 5.0316,12.4736 3.9456,14.4384 C3.5592,15.13728 2.868,15.52704 2.1588,15.52704" id="path-20"></path>
        <linearGradient x1="669.919154%" y1="568.303778%" x2="669.919154%" y2="-205.15985%" id="linearGradient-22">
            <stop stop-color="#F0CE8A" offset="0%"></stop>
            <stop stop-color="#D8AD72" offset="100%"></stop>
        </linearGradient>
        <path d="M3.447,15.54368 C1.035,15.54368 0.0006,10.4416 0.0006,7.94816 C0.0006,4.92928 1.2594,0.31552 3.4428,0.31552 C3.7746,0.31552 4.1268,0.42176 4.5,0.656 C5.4852,1.2768 5.8128,2.63168 5.2314,3.68256 C4.5204,4.96896 4.1448,6.44416 4.1448,7.94816 C4.1448,9.45088 4.5204,10.9248 5.2302,12.21056 C5.811,13.26208 5.4834,14.61696 4.4976,15.23648 C4.1676,15.44448 3.8046,15.54368 3.447,15.54368" id="path-23"></path>
        <linearGradient x1="1432.62292%" y1="567.151383%" x2="1432.62292%" y2="-204.589392%" id="linearGradient-25">
            <stop stop-color="#F0CE8A" offset="0%"></stop>
            <stop stop-color="#D8AD72" offset="100%"></stop>
        </linearGradient>
        <path d="M2.425,13.8052174 C1.233125,13.8052174 0.26625,12.8635652 0.26625,11.7027826 L0.26625,2.30147826 C0.26625,0.916695652 1.35,0.21973913 2.43125,0.21973913 C3.508125,0.21973913 4.583125,0.910608696 4.583125,2.30147826 L4.583125,11.7027826 C4.583125,12.8635652 3.616875,13.8052174 2.425,13.8052174" id="path-26"></path>
        <linearGradient x1="-96.4094397%" y1="654.509611%" x2="-96.4094397%" y2="-168.233344%" id="linearGradient-28">
            <stop stop-color="#F0CE8A" offset="0%"></stop>
            <stop stop-color="#D8AD72" offset="100%"></stop>
        </linearGradient>
        <path d="M2.74,14.554375 C1.5475,14.554375 0.58125,13.58875 0.58125,12.39625 L0.58125,2.390625 C0.58125,0.968125 1.665,0.253125 2.74625,0.253125 C3.823125,0.253125 4.898125,0.9625 4.898125,2.390625 L4.898125,12.39625 C4.898125,13.58875 3.93125,14.554375 2.74,14.554375" id="path-29"></path>
        <linearGradient x1="200.332996%" y1="686.286164%" x2="200.332996%" y2="-116.213618%" id="linearGradient-31">
            <stop stop-color="#F0CE8A" offset="0%"></stop>
            <stop stop-color="#D8AD72" offset="100%"></stop>
        </linearGradient>
        <path d="M2.74,6.49727273 C1.5475,6.49727273 0.58125,5.51409091 0.58125,4.29990909 L0.58125,2.37490909 C0.58125,0.927181818 1.665,0.198545455 2.745625,0.198545455 C3.823125,0.198545455 4.898125,0.921454545 4.898125,2.37490909 L4.898125,4.29990909 C4.898125,5.51409091 3.93125,6.49727273 2.74,6.49727273" id="path-32"></path>
        <linearGradient x1="200.332996%" y1="1718.82198%" x2="200.332996%" y2="-136.381087%" id="linearGradient-34">
            <stop stop-color="#F0CE8A" offset="0%"></stop>
            <stop stop-color="#D8AD72" offset="100%"></stop>
        </linearGradient>
    </defs>
    <g id="Alzagro-Landing" stroke="none" stroke-width="1" fill="none" fill-rule="evenodd">
        <g id="Alzagro_Web_UX_draft" transform="translate(-735.000000, -1664.000000)">
            <g id="The-solution" transform="translate(149.000000, 865.000000)">
                <g id="how-it-works" transform="translate(1.000000, 706.000000)">
                    <g id="3" transform="translate(585.000000, 93.000000)">
                        <g id="illustration_3">
                            <path d="M2.32994604,108.644033 C18.5359685,102.881344 34.741991,100 50.9480135,100 C67.4758086,100 84.0036037,102.996899 100.531399,108.990697 L100.531399,108.990696 C100.771636,109.077818 100.992951,109.210173 101.18337,109.380599 L124.559723,130.302715 C125.382781,131.039362 125.452832,132.303753 124.716185,133.126811 C124.336782,133.550719 123.794804,133.792993 123.225906,133.792993 L3,133.793031 C1.8954305,133.793031 0.999999738,132.897601 0.999999414,131.793031 C0.999999414,131.793031 0.999999414,131.79303 0.999999414,131.793029 L1.00003306,110.528425 C1.00003365,109.682194 1.53262323,108.927552 2.32994604,108.644033 Z" id="Rectangle" fill="url(#linearGradient-1)"></path>
                            <g id="Drone">
                                <g id="Group-636" transform="translate(131.000000, 7.000000)">
                                    <mask id="mask-3" fill="white">
                                        <use xlink:href="#path-2"></use>
                                    </mask>
                                    <g id="Clip-635"></g>
                                    <path d="M15.4613571,5.9886 C15.0775714,5.9886 14.6886429,5.8956 14.3344286,5.7006 C12.6977143,4.7988 10.8025714,4.3476 8.90678571,4.3476 C7.01228571,4.3476 5.11778571,4.7982 3.48042857,5.6994 C3.12621429,5.8938 2.73792857,5.9862 2.35478571,5.9862 C1.59428571,5.9862 0.853714286,5.6214 0.440357143,4.9656 C-0.182571429,3.9798 0.169071429,2.7096 1.22528571,2.1282 C3.546,0.8526 6.20164286,0.1782 8.90678571,0.1782 C11.6138571,0.1782 14.2714286,0.8544 16.5915,2.1312 C17.6477143,2.7132 17.9987143,3.9834 17.3757857,4.9692 C16.9617857,5.625 16.2205714,5.9886 15.4613571,5.9886" id="Fill-634" fill="url(#linearGradient-4)" mask="url(#mask-3)"></path>
                                </g>
                                <g id="Group-639" transform="translate(16.000000, 7.000000)">
                                    <mask id="mask-6" fill="white">
                                        <use xlink:href="#path-5"></use>
                                    </mask>
                                    <g id="Clip-638"></g>
                                    <path d="M2.23264286,6.37890909 C0.270642857,6.37890909 -0.988714286,3.49936364 1.13914286,2.25718182 C3.50228571,0.878818182 6.16114286,0.189 8.82,0.189 C11.4795,0.189 14.1396429,0.878818182 16.5053571,2.26036364 C18.4480714,3.39563636 17.6226429,6.35154545 15.3752143,6.35154545 C14.9907857,6.35154545 14.6025,6.25290909 14.2482857,6.04609091 C12.6115714,5.089 10.7157857,4.61045455 8.82064286,4.61045455 C6.92614286,4.61045455 5.03164286,5.08836364 3.39364286,6.04481818 C2.99378571,6.27709091 2.601,6.37890909 2.23264286,6.37890909" id="Fill-637" fill="url(#linearGradient-7)" mask="url(#mask-6)"></path>
                                </g>
                                <g id="Group-642" transform="translate(126.000000, 0.000000)">
                                    <mask id="mask-9" fill="white">
                                        <use xlink:href="#path-8"></use>
                                    </mask>
                                    <g id="Clip-641"></g>
                                    <path d="M25.2553636,8.57571429 C24.8124545,8.57571429 24.3657273,8.44071429 23.9781818,8.15978571 C21.0292727,6.02742857 17.5470909,4.89985714 13.9077273,4.89985714 C10.2728182,4.89985714 6.79318182,6.0255 3.84618182,8.154 C3.45927273,8.43428571 3.01254545,8.56864286 2.57027273,8.56864286 C1.88554545,8.56864286 1.20972727,8.24528571 0.780181818,7.63971429 C0.0738181818,6.642 0.302909091,5.256 1.28990909,4.54178571 C4.98718182,1.872 9.35072727,0.460285714 13.9077273,0.460285714 C18.4691818,0.460285714 22.8365455,1.87457143 26.537,4.5495 C27.5233636,5.26307143 27.7505455,6.65035714 27.0441818,7.64678571 C26.6152727,8.25171429 25.9400909,8.57507143 25.2553636,8.57571429" id="Fill-640" fill="url(#linearGradient-10)" mask="url(#mask-9)"></path>
                                </g>
                                <g id="Group-645" transform="translate(11.000000, 0.000000)">
                                    <mask id="mask-12" fill="white">
                                        <use xlink:href="#path-11"></use>
                                    </mask>
                                    <g id="Clip-644"></g>
                                    <path d="M2.47672727,8.60014286 C0.630636364,8.60014286 -0.729909091,5.93935714 1.20463636,4.54178571 C4.97636364,1.818 9.39909091,0.457071429 13.8218182,0.457071429 C18.2496364,0.457071429 22.6780909,1.82185714 26.4510909,4.5495 C28.1909091,5.80757143 27.2910909,8.57571429 25.1700909,8.57571429 C24.7138182,8.57571429 24.2696364,8.43364286 23.8922727,8.15978571 C20.8841818,5.98435714 17.3536364,4.89664286 13.8224545,4.89664286 C10.2950909,4.89664286 6.76645455,5.98307143 3.76027273,8.154 C3.32945455,8.46642857 2.891,8.60014286 2.47672727,8.60014286" id="Fill-643" fill="url(#linearGradient-13)" mask="url(#mask-12)"></path>
                                </g>
                                <polygon id="Fill-655" fill="#AF3F3D" points="138 49 141 49 141 40 138 40"></polygon>
                                <polygon id="Fill-656" fill="#AF3F3D" points="23 49 26 49 26 40 23 40"></polygon>
                                <path d="M52.2765986,70.1726239 C51.6149453,73.2105971 52.1496209,76.3375354 53.781035,78.9789243 C54.4065868,79.9926262 55.7330055,80.3046308 56.74198,79.6737298 C57.7497097,79.0422023 58.0590622,77.708351 57.4316431,76.6940226 C56.3959036,75.0155879 56.0560516,73.0282811 56.4768208,71.0979872 C56.8951002,69.1676933 58.0285626,67.5049214 59.667446,66.4160377 L59.7527202,66.3552657 L75,54.7008264 L72.744279,51 C60.3907208,60.1139194 53.4474074,64.7845916 52.2765986,70.1726239" id="Fill-657" fill="#000000"></path>
                                <path d="M110.723401,70.1726239 C111.385055,73.2105971 110.850379,76.3375354 109.218965,78.9789243 C108.593413,79.9926262 107.266995,80.3046308 106.258642,79.6737298 C105.25029,79.0422023 104.94156,77.708351 105.568357,76.6940226 C106.604096,75.0155879 106.943948,73.0282811 106.523802,71.0979872 C106.1049,69.1676933 104.971437,67.5049214 103.333176,66.4160377 L103.24728,66.3552657 L88,54.7008264 L90.255721,51 C102.609279,60.1139194 109.552593,64.7845916 110.723401,70.1726239" id="Fill-658" fill="#000000"></path>
                                <polyline id="Fill-659" fill="#000000" points="135 50.9623423 106 45 106 53.0789062 134.232228 58.8833441 134.999367 59 134.999367 51.0519289 135 50.9623423"></polyline>
                                <polyline id="Fill-660" fill="#000000" points="57.887768 45 57.887768 45 29 50.9641689 29.0006305 51.0292912 29.0006305 59 29.8808323 58.8645972 58 53.059043 57.887768 53.059043 57.887768 45"></polyline>
                                <path d="M73.9947784,54 L91.0046029,54 C93.2021332,54 95,55.7999381 95,58 C95,60.2000619 93.2021332,62 91.0046029,62 L73.9947784,62 C71.7972481,62 70,60.2000619 70,58 C70,55.7999381 71.7972481,54 73.9947784,54" id="Fill-661" fill="#000000"></path>
                                <path d="M135,60.2002535 L135,51.7997465 C135,49.1603295 137.025149,47 139.499406,47 C141.974851,47 144,49.1603295 144,51.7997465 L144,60.2002535 C144,62.8396705 141.974851,65 139.499406,65 C137.025149,65 135,62.8403042 135,60.2002535" id="Fill-662" fill="#F2EFCD"></path>
                                <path d="M20,60.2002535 L20,51.7997465 C20,49.1603295 22.0252822,47 24.499703,47 C26.9753119,47 29,49.1603295 29,51.7997465 L29,60.2002535 C29,62.8396705 26.9753119,65 24.499703,65 C22.0252822,65 20,62.8403042 20,60.2002535" id="Fill-663" fill="#F2EFCD"></path>
                                <path d="M139.500303,30 C136.462352,30 134,32.462352 134,35.5003029 C134,38.5382539 136.462352,41 139.500303,41 C142.537648,41 145,38.5382539 145,35.5003029 C145,32.462352 142.537648,30 139.500303,30" id="Fill-664" fill="#513F4C"></path>
                                <path d="M24.5,30 C21.4618817,30 19,32.462352 19,35.5003029 C19,38.5382539 21.4618817,41 24.5,41 C27.5375124,41 30,38.5382539 30,35.5003029 C30,32.462352 27.5375124,30 24.5,30" id="Fill-665" fill="#513F4C"></path>
                                <path d="M63.7119218,38 C75.9039739,38 88.0960261,38 100.288699,38 L105.999379,45.2843685 L106,53 L58,53 L58,45.2849802 L63.7119218,38" id="Fill-666" fill="#000000"></path>
                                <polyline id="Fill-667" fill="#0094CC" points="94 38 101.089216 38 106.999358 45.2840538 107 53 99.910784 53 99.910784 45.2840538 94 38"></polyline>
                                <path d="M140.232757,30 C139.035086,30 137.92192,30.3483889 137,30.9445883 C138.529968,31.9334068 139.535122,33.6050675 139.535122,35.5003029 C139.535122,37.3955384 138.529968,39.0671991 137,40.0560176 C137.92192,40.6516111 139.035086,41 140.232757,41 C143.417861,41 146,38.5382539 146,35.5003029 C146,32.462352 143.417861,30 140.232757,30" id="Fill-668" fill="#352B32"></path>
                                <path d="M25.2327568,30 C24.0350865,30 22.9219202,30.3483889 22,30.9445883 C23.5293329,31.9334068 24.5351218,33.6050675 24.5351218,35.5003029 C24.5351218,37.3955384 23.5293329,39.0671991 22,40.0560176 C22.9219202,40.6516111 24.0350865,41 25.2327568,41 C28.4178609,41 31,38.5382539 31,35.5003029 C31,32.462352 28.4178609,30 25.2327568,30" id="Fill-669" fill="#352B32"></path>
                                <path d="M84.3071708,53.8703383 L90.9641759,53.8703383 C93.1750859,53.8703383 94.983899,55.6994493 94.983899,57.9351692 C94.983899,60.1708891 93.1750859,62 90.9641759,62 L84.3071708,62 C86.5180808,62 88.3268939,60.1708891 88.3268939,57.9351692 C88.3268939,55.6994493 86.5180808,53.8703383 84.3071708,53.8703383 Z M58.3333358,46 L52,47.2934697 L52,55.1833202 L58.4441303,53.8678206 L58.3333358,53.8678206 L58.3333358,46 Z M135,51.7982691 L128.665419,50.5054288 L128.665419,58.3952793 L134.244979,59.5339103 L134.999378,59.6484658 L134.999378,51.8863887 L135,51.7982691 Z" id="Fill-670" fill="#AF3F3D"></path>
                                <path d="M22,47.7560203 C22.7334607,47.2775665 23.6033937,47 24.5337733,47 C27.1304859,47 29.2542191,49.1603295 29.2542191,51.7997465 L29.2542191,60.2002535 C29.2542191,62.8396705 27.1304859,65 24.5337733,65 C23.6033937,65 22.7334607,64.7217997 22,64.2446134 C23.3117542,63.3891001 24.1854262,61.8929024 24.1854262,60.2002535 L24.1854262,51.7997465 C24.1854262,50.1070976 23.3117542,48.6115336 22,47.7560203 Z M136.745158,47.7560203 C137.477995,47.2782003 138.348551,47 139.278931,47 C141.875644,47 144,49.1603295 144,51.7997465 L144,60.2002535 C144,62.8396705 141.875644,65 139.278931,65 C138.348551,65 137.478618,64.7217997 136.745781,64.2446134 C138.057535,63.3891001 138.931207,61.8935361 138.931207,60.2002535 L138.931207,51.7997465 C138.931207,50.1070976 138.057535,48.6115336 136.745158,47.7560203 Z" id="Fill-671" fill="#BFBC93"></path>
                                <g id="Group-674" transform="translate(159.000000, 27.000000)">
                                    <mask id="mask-15" fill="white">
                                        <use xlink:href="#path-14"></use>
                                    </mask>
                                    <g id="Clip-673"></g>
                                    <path d="M2.2728,15.52704 C1.9152,15.52704 1.5528,15.42784 1.2222,15.2192 C0.237,14.59968 -0.0912,13.2448 0.4902,12.19328 C1.2006,10.90816 1.5756,9.43424 1.5756,7.93088 C1.5756,6.42752 1.2,4.95232 0.489,3.66592 C-0.093,2.61504 0.2352,1.26016 1.2204,0.64 C1.5516,0.432 1.914,0.3328 2.2722,0.3328 C2.9814,0.3328 3.672,0.72064 4.0584,1.41952 C5.1456,3.38624 5.7204,5.63712 5.7204,7.93088 C5.7204,10.22336 5.1456,12.4736 4.0602,14.4384 C3.6732,15.13728 2.982,15.52704 2.2728,15.52704" id="Fill-672" fill="url(#linearGradient-16)" mask="url(#mask-15)"></path>
                                </g>
                                <g id="Group-677" transform="translate(115.000000, 27.000000)">
                                    <mask id="mask-18" fill="white">
                                        <use xlink:href="#path-17"></use>
                                    </mask>
                                    <g id="Clip-676"></g>
                                    <path d="M3.5616,15.52704 C2.8524,15.52704 2.1612,15.13664 1.7742,14.4384 C0.6888,12.4736 0.1146,10.22272 0.1146,7.93088 C0.1146,5.63712 0.6888,3.3856 1.776,1.41952 C2.1624,0.72128 2.8536,0.3328 3.5634,0.3328 C3.921,0.3328 4.2834,0.43136 4.614,0.63936 C5.5998,1.26016 5.9274,2.61504 5.3454,3.66592 C4.6344,4.95168 4.2588,6.42752 4.2588,7.93088 C4.2588,9.43424 4.6338,10.90816 5.3442,12.19328 C6.1614,13.67168 5.151,15.52704 3.5616,15.52704" id="Fill-675" fill="url(#linearGradient-19)" mask="url(#mask-18)"></path>
                                </g>
                                <g id="Group-680" transform="translate(44.000000, 27.000000)">
                                    <mask id="mask-21" fill="white">
                                        <use xlink:href="#path-20"></use>
                                    </mask>
                                    <g id="Clip-679"></g>
                                    <path d="M2.1588,15.52704 C1.8012,15.52704 1.4388,15.42784 1.1082,15.2192 C0.123,14.59968 -0.2052,13.2448 0.3756,12.19328 C1.0866,10.90816 1.4616,9.43424 1.4616,7.93088 C1.4616,6.42624 1.086,4.95232 0.3744,3.66592 C-0.207,2.61504 0.1206,1.26016 1.1064,0.64 C1.437,0.432 1.8,0.3328 2.1582,0.3328 C2.8668,0.3328 3.5574,0.72064 3.9438,1.41952 C5.0316,3.38496 5.6058,5.63648 5.6058,7.93088 C5.6058,10.22336 5.0316,12.4736 3.9456,14.4384 C3.5592,15.13728 2.868,15.52704 2.1588,15.52704" id="Fill-678" fill="url(#linearGradient-22)" mask="url(#mask-21)"></path>
                                </g>
                                <g id="Group-683" transform="translate(0.000000, 27.000000)">
                                    <mask id="mask-24" fill="white">
                                        <use xlink:href="#path-23"></use>
                                    </mask>
                                    <g id="Clip-682"></g>
                                    <path d="M3.447,15.54368 C1.035,15.54368 0.0006,10.4416 0.0006,7.94816 C0.0006,4.92928 1.2594,0.31552 3.4428,0.31552 C3.7746,0.31552 4.1268,0.42176 4.5,0.656 C5.4852,1.2768 5.8128,2.63168 5.2314,3.68256 C4.5204,4.96896 4.1448,6.44416 4.1448,7.94816 C4.1448,9.45088 4.5204,10.9248 5.2302,12.21056 C5.811,13.26208 5.4834,14.61696 4.4976,15.23648 C4.1676,15.44448 3.8046,15.54368 3.447,15.54368" id="Fill-681" fill="url(#linearGradient-25)" mask="url(#mask-24)"></path>
                                </g>
                                <g id="Group-686" transform="translate(86.000000, 20.000000)">
                                    <mask id="mask-27" fill="white">
                                        <use xlink:href="#path-26"></use>
                                    </mask>
                                    <g id="Clip-685"></g>
                                    <path d="M2.425,13.8052174 C1.233125,13.8052174 0.26625,12.8635652 0.26625,11.7027826 L0.26625,2.30147826 C0.26625,0.916695652 1.35,0.21973913 2.43125,0.21973913 C3.508125,0.21973913 4.583125,0.910608696 4.583125,2.30147826 L4.583125,11.7027826 C4.583125,12.8635652 3.616875,13.8052174 2.425,13.8052174" id="Fill-684" fill="url(#linearGradient-28)" mask="url(#mask-27)"></path>
                                </g>
                                <g id="Group-689" transform="translate(73.000000, 13.000000)">
                                    <mask id="mask-30" fill="white">
                                        <use xlink:href="#path-29"></use>
                                    </mask>
                                    <g id="Clip-688"></g>
                                    <path d="M2.74,14.554375 C1.5475,14.554375 0.58125,13.58875 0.58125,12.39625 L0.58125,2.390625 C0.58125,0.968125 1.665,0.253125 2.74625,0.253125 C3.823125,0.253125 4.898125,0.9625 4.898125,2.390625 L4.898125,12.39625 C4.898125,13.58875 3.93125,14.554375 2.74,14.554375" id="Fill-687" fill="url(#linearGradient-31)" mask="url(#mask-30)"></path>
                                </g>
                                <g id="Group-692" transform="translate(73.000000, 5.000000)">
                                    <mask id="mask-33" fill="white">
                                        <use xlink:href="#path-32"></use>
                                    </mask>
                                    <g id="Clip-691"></g>
                                    <path d="M2.74,6.49727273 C1.5475,6.49727273 0.58125,5.51409091 0.58125,4.29990909 L0.58125,2.37490909 C0.58125,0.927181818 1.665,0.198545455 2.745625,0.198545455 C3.823125,0.198545455 4.898125,0.921454545 4.898125,2.37490909 L4.898125,4.29990909 C4.898125,5.51409091 3.93125,6.49727273 2.74,6.49727273" id="Fill-690" fill="url(#linearGradient-34)" mask="url(#mask-33)"></path>
                                </g>
                                <path d="M129.686946,37 L123.313054,37 C122.041191,37 121,35.8746575 121,34.5 C121,33.1253425 122.041191,32 123.313054,32 L129.686946,32 C130.958809,32 132,33.1253425 132,34.5 C132,35.8746575 130.958809,37 129.686946,37" id="Fill-693" fill="#F2EFCD"></path>
                                <path d="M155.686812,37 L149.313188,37 C148.040618,37 147,35.8746575 147,34.5 C147,33.1253425 148.040618,32 149.313188,32 L155.686812,32 C156.959382,32 158,33.1253425 158,34.5 C158,35.8746575 156.959382,37 155.686812,37" id="Fill-694" fill="#F2EFCD"></path>
                                <path d="M14.6869455,37 L8.3130545,37 C7.04119138,37 6,35.8746575 6,34.5 C6,33.1253425 7.04119138,32 8.3130545,32 L14.6869455,32 C15.9588086,32 17,33.1253425 17,34.5 C17,35.8746575 15.9588086,37 14.6869455,37" id="Fill-695" fill="#F2EFCD"></path>
                                <path d="M40.6868122,37 L34.3131878,37 C33.0406176,37 32,35.8746575 32,34.5 C32,33.1253425 33.0406176,32 34.3131878,32 L40.6868122,32 C41.9593824,32 43,33.1253425 43,34.5 C43,35.8746575 41.9593824,37 40.6868122,37" id="Fill-696" fill="#F2EFCD"></path>
                                <path d="M87,51 C85.3195082,51 84.3385073,51 82.6592395,51 L82.6592395,46 C84.3385073,46 85.3207321,46 87,46 L87,51 Z M78.1703803,51 C76.4911124,51 75.5094996,51 73.8302317,51 L73.8302317,46 C75.5107235,46 76.4911124,46 78.1703803,46 L78.1703803,51 Z M69.3407605,51 C67.6786281,51 66.6798798,51 65,51 L65,46 C66.6621325,46 67.6614927,46 69.3407605,46 L69.3407605,51 Z" id="Fill-697" fill="#F2EFCD"></path>
                                <path d="M81,66.3225579 L83,66.3225579 L83,64 L81,64 L81,66.3225579 Z M81,71.6205419 L83,71.6205419 L83,68.9717505 L81,68.9717505 L81,71.6205419 Z M81,76.9177233 L83,76.9177233 L83,74.268932 L81,74.268932 L81,76.9177233 Z M81,82.2153061 L83,82.2153061 L83,79.5665147 L81,79.5665147 L81,82.2153061 Z M81,87.5124876 L83,87.5124876 L83,84.8636962 L81,84.8636962 L81,87.5124876 Z M81,92.8100703 L83,92.8100703 L83,90.1616802 L81,90.1616802 L81,92.8100703 Z M81,98.1072518 L83,98.1072518 L83,95.4588617 L81,95.4588617 L81,98.1072518 Z M81,103.404835 L83,103.404835 L83,100.756444 L81,100.756444 L81,103.404835 Z M81,108.702417 L83,108.702417 L83,106.053626 L81,106.053626 L81,108.702417 Z M81,114 L83,114 L83,111.351209 L81,111.351209 L81,114 Z" id="Fill-698" fill="#0094CC"></path>
                            </g>
                        </g>
                    </g>
                </g>
            </g>
        </g>
    </g>
</svg>