<?xml version="1.0" encoding="UTF-8"?>
<svg width="65px" height="73px" viewBox="0 0 65 73" version="1.1" xmlns="http://www.w3.org/2000/svg" xmlns:xlink="http://www.w3.org/1999/xlink">
    <!-- Generator: Sketch 52.6 (67491) - http://www.bohemiancoding.com/sketch -->
    <title>value@1,5x</title>
    <desc>Created with Sketch.</desc>
    <g id="Alzagro-Landing" stroke="none" stroke-width="1" fill="none" fill-rule="evenodd">
        <g id="Alzagro_Web_UX_draft" transform="translate(-1126.000000, -2367.000000)">
            <g id="Advantages" transform="translate(0.000000, 2085.000000)">
                <g id="elements" transform="translate(150.000000, 272.000000)">
                    <g id="element_1" transform="translate(879.000000, 10.000000)">
                        <g id="value" transform="translate(97.000000, 0.000000)">
                            <path d="M32.26,72.23 C31.59,72.23 30.92,72.06 30.29,71.7 L8.33,59.15 C3.48,56.38 0.46,51.18 0.46,45.59 L0.46,16.29 C0.46,7.68 7.47,0.67 16.08,0.67 L32.27,0.67 C34.46,0.67 36.24,2.45 36.24,4.64 C36.24,6.84 34.46,8.62 32.27,8.62 L16.08,8.62 C11.85,8.62 8.41,12.06 8.41,16.29 L8.41,45.59 C8.41,48.34 9.89,50.89 12.28,52.25 L34.24,64.8 C36.14,65.89 36.81,68.32 35.72,70.22 C34.98,71.51 33.64,72.23 32.26,72.23" id="Fill-530" fill="#0094CC"></path>
                            <path d="M32.27,72.23 C30.89,72.23 29.55,71.51 28.81,70.22 C27.72,68.32 28.39,65.89 30.29,64.8 L52.25,52.25 C54.64,50.89 56.12,48.34 56.12,45.59 L56.12,16.29 C56.12,12.06 52.68,8.62 48.45,8.62 L32.27,8.62 C30.07,8.62 28.29,6.84 28.29,4.64 C28.29,2.45 30.07,0.67 32.27,0.67 L48.45,0.67 C57.06,0.67 64.07,7.68 64.07,16.29 L64.07,45.59 C64.07,51.18 61.05,56.38 56.2,59.15 L34.24,71.7 C33.62,72.06 32.94,72.23 32.27,72.23" id="Fill-531" fill="#0094CC"></path>
                            <path d="M27,45.99 C25.98,45.99 24.96,45.6 24.19,44.82 L16.24,36.87 C14.68,35.32 14.68,32.8 16.24,31.25 C17.79,29.7 20.31,29.7 21.86,31.25 L27,36.39 L42.67,20.72 C44.22,19.16 46.74,19.16 48.29,20.72 C49.85,22.27 49.85,24.79 48.29,26.34 L29.81,44.82 C29.03,45.6 28.01,45.99 27,45.99" id="Fill-532" fill="#45C5FF"></path>
                        </g>
                    </g>
                </g>
            </g>
        </g>
    </g>
</svg>