<?xml version="1.0" encoding="UTF-8"?>
<svg width="173px" height="120px" viewBox="0 0 173 120" version="1.1" xmlns="http://www.w3.org/2000/svg" xmlns:xlink="http://www.w3.org/1999/xlink">
    <!-- Generator: Sketch 52.6 (67491) - http://www.bohemiancoding.com/sketch -->
    <title>illustration_2@1,5x</title>
    <desc>Created with Sketch.</desc>
    <g id="Alzagro-Landing" stroke="none" stroke-width="1" fill="none" fill-rule="evenodd">
        <g id="Alzagro_Web_UX_draft" transform="translate(-445.000000, -1671.000000)">
            <g id="The-solution" transform="translate(149.000000, 865.000000)">
                <g id="how-it-works" transform="translate(1.000000, 706.000000)">
                    <g id="2" transform="translate(295.000000, 101.000000)">
                        <g id="illustration_2">
                            <path d="M83.546875,115.730469 C83.6679687,105.799479 83.3651005,95.8542602 83.9101562,85.9375 C84.9239973,67.4916448 106.74737,39.5542221 83.8320312,20.9453125 C77.2204684,15.5762462 67.2667253,15.5358454 60.6796875,10.1367187 C59.0292803,8.78394719 62.1519171,5.84188294 63.8828125,4.59375 C66.0064121,3.06244166 68.8224577,2.70305123 71.421875,2.390625 C77.6041094,1.64757685 84.2393561,-0.718230809 90.078125,1.4453125 C95.3014266,3.38079571 98.2479719,9.10400522 101.582031,13.5664062 C105.022484,18.1712078 104.543751,27.9161442 110.265625,28.4648437 C126.752549,30.0458584 142.590452,17.3121755 159.058594,19.078125 C164.295423,19.6396926 163.002057,28.9668205 163.667969,34.1914062 C164.55515,41.1520222 164.373342,48.2608041 163.667969,55.2421875 C162.931873,62.5276496 155.667024,59.6595268 151.742187,64.3125 C140.388449,77.7725887 146.735233,85.6458319 158.40625,94.6679687 C164.01095,99.0006136 170.390625,102.22526 176.382812,106.003906" id="Path-3" stroke="#0094CC" stroke-width="3" stroke-dasharray="10,10"></path>
                            <g id="Smartphone" transform="translate(51.395826, 77.520181) rotate(30.000000) translate(-51.395826, -77.520181) translate(18.895826, 31.020181)">
                                <path d="M21.9666852,0 L61.0333148,0 C63.2167314,0 65,1.81983641 65,4.04344072 L65,72.9574457 C65,75.1801636 63.2167314,77 61.0333148,77 L21.9666852,77 C19.787618,77 18,75.1806068 18,72.9574457 L18,4.04344072 C18,1.8193932 19.7832686,0 21.9666852,0" id="Fill-386" fill="#000000"></path>
                                <path d="M56,0 L60.803681,0 C63.1134969,0 65,1.81983641 65,4.04344072 L65,72.9574457 C65,75.1801636 63.1134969,77 60.803681,77 L56,77 C58.3052147,77 60.196319,75.1801636 60.196319,72.9574457 L60.196319,4.04344072 C60.196319,1.81983641 58.3052147,0 56,0" id="Fill-387" fill="#352B32"></path>
                                <polygon id="Fill-388" fill="#000000" points="18 66 65 66 65 10 18 10"></polygon>
                                <polygon id="Fill-404" fill="#0094CC" points="26 43 53 43 53 33 26 33"></polygon>
                                <polygon id="Fill-389" fill="#505050" points="60 66 65 66 65 10 60 10"></polygon>
                                <path d="M17.8008999,24 L17.8097238,49.4326535 L22.7775866,40.3998776 C23.3158453,38.4541071 25.3365212,37.327147 27.2954298,37.8623544 C29.2543384,38.3953702 30.405859,40.4139043 29.8676003,42.3618665 L25.1953386,60.8574252 C23.9070474,64.5508386 20.7877943,66.3234667 17.792076,66.4961708 L17.8008999,77 L3.3473311,77 L3.37380284,64.3601628 L3.37380284,64.3597244 C2.89289961,62.4345557 2.87525178,60.4239116 3.32527132,58.4917295 L9.40494708,32.3340694 C10.5652916,28.192239 13.6360132,24.9967745 17.8008999,24" id="Fill-390" fill="#F8D2AB"></path>
                                <path d="M17.9952199,24 L18,49.2017128 L16.2791587,52.0766983 C15.375717,53.5848659 13.0047801,53.1909188 13.0047801,51.2922941 L13,26.3170027 C14.4101338,25.2197966 16.0975143,24.4170692 17.9952199,24" id="Fill-394" fill="#ECB382"></path>
                                <path d="M23.9438348,38.7979395 C25.0676516,39.6772685 25.6117216,41.1586333 25.2058989,42.6008201 L20.4831927,60.9687859 C19.1809923,64.6367201 16.0280619,66.3971195 13,66.5686322 L13.0089192,77 L17.6691911,77 L17.660272,66.5686322 C20.6883338,66.3971195 23.8412643,64.6367201 25.1434646,60.9687859 L29.8661709,42.6008201 C30.4102409,40.6662961 29.2462878,38.661687 27.2662297,38.1323483 C26.0665999,37.8097825 24.8446721,38.0940409 23.9438348,38.7979395" id="Fill-395" fill="#ECB382"></path>
                                <polyline id="Fill-399" fill="#ECB382" points="17.9957265 73 18 77 4 77 4.00854701 73 17.9957265 73"></polyline>
                                <polygon id="Fill-400" fill="#D79869" points="13 77 18 77 18 73 13 73"></polygon>
                                <polygon id="Fill-401" fill="#0094CC" points="0 93 21 93 21 77 0 77"></polygon>
                                <polygon id="Fill-402" fill="#0094CC" points="12 93 21 93 21 77 12 77"></polygon>
                            </g>
                        </g>
                    </g>
                </g>
            </g>
        </g>
    </g>
</svg>