<?xml version="1.0" encoding="UTF-8"?>
<svg width="258px" height="120px" viewBox="0 0 258 120" version="1.1" xmlns="http://www.w3.org/2000/svg" xmlns:xlink="http://www.w3.org/1999/xlink">
    <!-- Generator: Sketch 52.6 (67491) - http://www.bohemiancoding.com/sketch -->
    <title>illustration_1@1,5x</title>
    <desc>Created with Sketch.</desc>
    <defs>
        <path d="M17.1792857,6.9867 C16.7528571,6.9867 16.3207143,6.8782 15.9271429,6.6507 C14.1085714,5.5986 12.0028571,5.0722 9.89642857,5.0722 C7.79142857,5.0722 5.68642857,5.5979 3.86714286,6.6493 C3.47357143,6.8761 3.04214286,6.9839 2.61642857,6.9839 C1.77142857,6.9839 0.948571429,6.5583 0.489285714,5.7932 C-0.202857143,4.6431 0.187857143,3.1612 1.36142857,2.4829 C3.94,0.9947 6.89071429,0.2079 9.89642857,0.2079 C12.9042857,0.2079 15.8571429,0.9968 18.435,2.4864 C19.6085714,3.1654 19.9985714,4.6473 19.3064286,5.7974 C18.8464286,6.5625 18.0228571,6.9867 17.1792857,6.9867" id="path-1"></path>
        <linearGradient x1="-287.292714%" y1="1725.981%" x2="-287.292714%" y2="-170.218918%" id="linearGradient-3">
            <stop stop-color="#F0CE8A" offset="0%"></stop>
            <stop stop-color="#D8AD72" offset="100%"></stop>
        </linearGradient>
        <path d="M2.48071429,7.29018182 C0.300714286,7.29018182 -1.09857143,3.99927273 1.26571429,2.57963636 C3.89142857,1.00436364 6.84571429,0.216 9.8,0.216 C12.755,0.216 15.7107143,1.00436364 18.3392857,2.58327273 C20.4978571,3.88072727 19.5807143,7.25890909 17.0835714,7.25890909 C16.6564286,7.25890909 16.225,7.14618182 15.8314286,6.90981818 C14.0128571,5.816 11.9064286,5.26909091 9.80071429,5.26909091 C7.69571429,5.26909091 5.59071429,5.81527273 3.77071429,6.90836364 C3.32642857,7.17381818 2.89,7.29018182 2.48071429,7.29018182" id="path-4"></path>
        <linearGradient x1="386.958532%" y1="1718.35098%" x2="386.958532%" y2="-169.466434%" id="linearGradient-6">
            <stop stop-color="#F0CE8A" offset="0%"></stop>
            <stop stop-color="#D8AD72" offset="100%"></stop>
        </linearGradient>
        <path d="M28.8632727,9.52857143 C28.3570909,9.52857143 27.8465455,9.37857143 27.4036364,9.06642857 C24.0334545,6.69714286 20.0538182,5.44428571 15.8945455,5.44428571 C11.7403636,5.44428571 7.76363636,6.695 4.39563636,9.06 C3.95345455,9.37142857 3.44290909,9.52071429 2.93745455,9.52071429 C2.15490909,9.52071429 1.38254545,9.16142857 0.891636364,8.48857143 C0.0843636364,7.38 0.346181818,5.84 1.47418182,5.04642857 C5.69963636,2.08 10.6865455,0.511428571 15.8945455,0.511428571 C21.1076364,0.511428571 26.0989091,2.08285714 30.328,5.055 C31.4552727,5.84785714 31.7149091,7.38928571 30.9076364,8.49642857 C30.4174545,9.16857143 29.6458182,9.52785714 28.8632727,9.52857143" id="path-7"></path>
        <linearGradient x1="-166.379228%" y1="1407.83428%" x2="-166.379228%" y2="-46.7601394%" id="linearGradient-9">
            <stop stop-color="#F0CE8A" offset="0%"></stop>
            <stop stop-color="#D8AD72" offset="100%"></stop>
        </linearGradient>
        <path d="M2.83054545,9.55571429 C0.720727273,9.55571429 -0.834181818,6.59928571 1.37672727,5.04642857 C5.68727273,2.02 10.7418182,0.507857143 15.7963636,0.507857143 C20.8567273,0.507857143 25.9178182,2.02428571 30.2298182,5.055 C32.2181818,6.45285714 31.1898182,9.52857143 28.7658182,9.52857143 C28.2443636,9.52857143 27.7367273,9.37071429 27.3054545,9.06642857 C23.8676364,6.64928571 19.8327273,5.44071429 15.7970909,5.44071429 C11.7658182,5.44071429 7.73309091,6.64785714 4.29745455,9.06 C3.80509091,9.40714286 3.304,9.55571429 2.83054545,9.55571429" id="path-10"></path>
        <linearGradient x1="266.111042%" y1="1403.09466%" x2="266.111042%" y2="-46.5619326%" id="linearGradient-12">
            <stop stop-color="#F0CE8A" offset="0%"></stop>
            <stop stop-color="#D8AD72" offset="100%"></stop>
        </linearGradient>
        <path d="M2.6516,17.46792 C2.2344,17.46792 1.8116,17.35632 1.4259,17.1216 C0.2765,16.42464 -0.1064,14.9004 0.5719,13.71744 C1.4007,12.27168 1.8382,10.61352 1.8382,8.92224 C1.8382,7.23096 1.4,5.57136 0.5705,4.12416 C-0.1085,2.94192 0.2744,1.41768 1.4238,0.72 C1.8102,0.486 2.233,0.3744 2.6509,0.3744 C3.4783,0.3744 4.284,0.81072 4.7348,1.59696 C6.0032,3.80952 6.6738,6.34176 6.6738,8.92224 C6.6738,11.50128 6.0032,14.0328 4.7369,16.2432 C4.2854,17.02944 3.479,17.46792 2.6516,17.46792" id="path-13"></path>
        <linearGradient x1="-1332.40884%" y1="568.303778%" x2="-1332.40884%" y2="-205.15985%" id="linearGradient-15">
            <stop stop-color="#F0CE8A" offset="0%"></stop>
            <stop stop-color="#D8AD72" offset="100%"></stop>
        </linearGradient>
        <path d="M4.1552,17.46792 C3.3278,17.46792 2.5214,17.02872 2.0699,16.2432 C0.8036,14.0328 0.1337,11.50056 0.1337,8.92224 C0.1337,6.34176 0.8036,3.8088 2.072,1.59696 C2.5228,0.81144 3.3292,0.3744 4.1573,0.3744 C4.5745,0.3744 4.9973,0.48528 5.383,0.71928 C6.5331,1.41768 6.9153,2.94192 6.2363,4.12416 C5.4068,5.57064 4.9686,7.23096 4.9686,8.92224 C4.9686,10.61352 5.4061,12.27168 6.2349,13.71744 C7.1883,15.38064 6.0095,17.46792 4.1552,17.46792" id="path-16"></path>
        <linearGradient x1="-569.87723%" y1="568.303778%" x2="-569.87723%" y2="-205.15985%" id="linearGradient-18">
            <stop stop-color="#F0CE8A" offset="0%"></stop>
            <stop stop-color="#D8AD72" offset="100%"></stop>
        </linearGradient>
        <path d="M2.5186,17.46792 C2.1014,17.46792 1.6786,17.35632 1.2929,17.1216 C0.1435,16.42464 -0.2394,14.9004 0.4382,13.71744 C1.2677,12.27168 1.7052,10.61352 1.7052,8.92224 C1.7052,7.22952 1.267,5.57136 0.4368,4.12416 C-0.2415,2.94192 0.1407,1.41768 1.2908,0.72 C1.6765,0.486 2.1,0.3744 2.5179,0.3744 C3.3446,0.3744 4.1503,0.81072 4.6011,1.59696 C5.8702,3.80808 6.5401,6.34104 6.5401,8.92224 C6.5401,11.50128 5.8702,14.0328 4.6032,16.2432 C4.1524,17.02944 3.346,17.46792 2.5186,17.46792" id="path-19"></path>
        <linearGradient x1="669.919154%" y1="568.303778%" x2="669.919154%" y2="-205.15985%" id="linearGradient-21">
            <stop stop-color="#F0CE8A" offset="0%"></stop>
            <stop stop-color="#D8AD72" offset="100%"></stop>
        </linearGradient>
        <path d="M4.0215,17.48664 C1.2075,17.48664 0.0007,11.7468 0.0007,8.94168 C0.0007,5.54544 1.4693,0.35496 4.0166,0.35496 C4.4037,0.35496 4.8146,0.47448 5.25,0.738 C6.3994,1.4364 6.7816,2.96064 6.1033,4.14288 C5.2738,5.59008 4.8356,7.24968 4.8356,8.94168 C4.8356,10.63224 5.2738,12.2904 6.1019,13.73688 C6.7795,14.91984 6.3973,16.44408 5.2472,17.14104 C4.8622,17.37504 4.4387,17.48664 4.0215,17.48664" id="path-22"></path>
        <linearGradient x1="1432.62292%" y1="567.151383%" x2="1432.62292%" y2="-204.589392%" id="linearGradient-24">
            <stop stop-color="#F0CE8A" offset="0%"></stop>
            <stop stop-color="#D8AD72" offset="100%"></stop>
        </linearGradient>
        <path d="M2.91,16.7634783 C1.47975,16.7634783 0.3195,15.6200435 0.3195,14.2105217 L0.3195,2.79465217 C0.3195,1.11313043 1.62,0.266826087 2.9175,0.266826087 C4.20975,0.266826087 5.49975,1.10573913 5.49975,2.79465217 L5.49975,14.2105217 C5.49975,15.6200435 4.34025,16.7634783 2.91,16.7634783" id="path-25"></path>
        <linearGradient x1="-96.4094397%" y1="654.509611%" x2="-96.4094397%" y2="-168.233344%" id="linearGradient-27">
            <stop stop-color="#F0CE8A" offset="0%"></stop>
            <stop stop-color="#D8AD72" offset="100%"></stop>
        </linearGradient>
        <path d="M3.288,17.46525 C1.857,17.46525 0.6975,16.3065 0.6975,14.8755 L0.6975,2.86875 C0.6975,1.16175 1.998,0.30375 3.2955,0.30375 C4.58775,0.30375 5.87775,1.155 5.87775,2.86875 L5.87775,14.8755 C5.87775,16.3065 4.7175,17.46525 3.288,17.46525" id="path-28"></path>
        <linearGradient x1="200.332996%" y1="686.286164%" x2="200.332996%" y2="-116.213618%" id="linearGradient-30">
            <stop stop-color="#F0CE8A" offset="0%"></stop>
            <stop stop-color="#D8AD72" offset="100%"></stop>
        </linearGradient>
        <path d="M3.288,7.42545455 C1.857,7.42545455 0.6975,6.30181818 0.6975,4.91418182 L0.6975,2.71418182 C0.6975,1.05963636 1.998,0.226909091 3.29475,0.226909091 C4.58775,0.226909091 5.87775,1.05309091 5.87775,2.71418182 L5.87775,4.91418182 C5.87775,6.30181818 4.7175,7.42545455 3.288,7.42545455" id="path-31"></path>
        <linearGradient x1="200.332996%" y1="1718.82198%" x2="200.332996%" y2="-136.381087%" id="linearGradient-33">
            <stop stop-color="#F0CE8A" offset="0%"></stop>
            <stop stop-color="#D8AD72" offset="100%"></stop>
        </linearGradient>
    </defs>
    <g id="Alzagro-Landing" stroke="none" stroke-width="1" fill="none" fill-rule="evenodd">
        <g id="Alzagro_Web_UX_draft" transform="translate(-151.000000, -1676.000000)">
            <g id="The-solution" transform="translate(149.000000, 865.000000)">
                <g id="how-it-works" transform="translate(1.000000, 706.000000)">
                    <g id="1" transform="translate(0.000000, 105.000000)">
                        <g id="illustration_1" transform="translate(1.000000, 0.000000)">
                            <g id="Drone" transform="translate(65.000000, 0.000000)">
                                <g id="Group-636" transform="translate(154.000000, 8.000000)">
                                    <mask id="mask-2" fill="white">
                                        <use xlink:href="#path-1"></use>
                                    </mask>
                                    <g id="Clip-635"></g>
                                    <path d="M17.1792857,6.9867 C16.7528571,6.9867 16.3207143,6.8782 15.9271429,6.6507 C14.1085714,5.5986 12.0028571,5.0722 9.89642857,5.0722 C7.79142857,5.0722 5.68642857,5.5979 3.86714286,6.6493 C3.47357143,6.8761 3.04214286,6.9839 2.61642857,6.9839 C1.77142857,6.9839 0.948571429,6.5583 0.489285714,5.7932 C-0.202857143,4.6431 0.187857143,3.1612 1.36142857,2.4829 C3.94,0.9947 6.89071429,0.2079 9.89642857,0.2079 C12.9042857,0.2079 15.8571429,0.9968 18.435,2.4864 C19.6085714,3.1654 19.9985714,4.6473 19.3064286,5.7974 C18.8464286,6.5625 18.0228571,6.9867 17.1792857,6.9867" id="Fill-634" fill="url(#linearGradient-3)" mask="url(#mask-2)"></path>
                                </g>
                                <g id="Group-639" transform="translate(19.000000, 8.000000)">
                                    <mask id="mask-5" fill="white">
                                        <use xlink:href="#path-4"></use>
                                    </mask>
                                    <g id="Clip-638"></g>
                                    <path d="M2.48071429,7.29018182 C0.300714286,7.29018182 -1.09857143,3.99927273 1.26571429,2.57963636 C3.89142857,1.00436364 6.84571429,0.216 9.8,0.216 C12.755,0.216 15.7107143,1.00436364 18.3392857,2.58327273 C20.4978571,3.88072727 19.5807143,7.25890909 17.0835714,7.25890909 C16.6564286,7.25890909 16.225,7.14618182 15.8314286,6.90981818 C14.0128571,5.816 11.9064286,5.26909091 9.80071429,5.26909091 C7.69571429,5.26909091 5.59071429,5.81527273 3.77071429,6.90836364 C3.32642857,7.17381818 2.89,7.29018182 2.48071429,7.29018182" id="Fill-637" fill="url(#linearGradient-6)" mask="url(#mask-5)"></path>
                                </g>
                                <g id="Group-642" transform="translate(148.000000, 0.000000)">
                                    <mask id="mask-8" fill="white">
                                        <use xlink:href="#path-7"></use>
                                    </mask>
                                    <g id="Clip-641"></g>
                                    <path d="M28.8632727,9.52857143 C28.3570909,9.52857143 27.8465455,9.37857143 27.4036364,9.06642857 C24.0334545,6.69714286 20.0538182,5.44428571 15.8945455,5.44428571 C11.7403636,5.44428571 7.76363636,6.695 4.39563636,9.06 C3.95345455,9.37142857 3.44290909,9.52071429 2.93745455,9.52071429 C2.15490909,9.52071429 1.38254545,9.16142857 0.891636364,8.48857143 C0.0843636364,7.38 0.346181818,5.84 1.47418182,5.04642857 C5.69963636,2.08 10.6865455,0.511428571 15.8945455,0.511428571 C21.1076364,0.511428571 26.0989091,2.08285714 30.328,5.055 C31.4552727,5.84785714 31.7149091,7.38928571 30.9076364,8.49642857 C30.4174545,9.16857143 29.6458182,9.52785714 28.8632727,9.52857143" id="Fill-640" fill="url(#linearGradient-9)" mask="url(#mask-8)"></path>
                                </g>
                                <g id="Group-645" transform="translate(13.000000, 0.000000)">
                                    <mask id="mask-11" fill="white">
                                        <use xlink:href="#path-10"></use>
                                    </mask>
                                    <g id="Clip-644"></g>
                                    <path d="M2.83054545,9.55571429 C0.720727273,9.55571429 -0.834181818,6.59928571 1.37672727,5.04642857 C5.68727273,2.02 10.7418182,0.507857143 15.7963636,0.507857143 C20.8567273,0.507857143 25.9178182,2.02428571 30.2298182,5.055 C32.2181818,6.45285714 31.1898182,9.52857143 28.7658182,9.52857143 C28.2443636,9.52857143 27.7367273,9.37071429 27.3054545,9.06642857 C23.8676364,6.64928571 19.8327273,5.44071429 15.7970909,5.44071429 C11.7658182,5.44071429 7.73309091,6.64785714 4.29745455,9.06 C3.80509091,9.40714286 3.304,9.55571429 2.83054545,9.55571429" id="Fill-643" fill="url(#linearGradient-12)" mask="url(#mask-11)"></path>
                                </g>
                                <polygon id="Fill-655" fill="#AF3F3D" points="162 57 166 57 166 47 162 47"></polygon>
                                <polygon id="Fill-656" fill="#AF3F3D" points="27 57 31 57 31 47 27 47"></polygon>
                                <path d="M61.3247026,82.4782488 C60.5479793,86.0400104 61.1756419,89.706076 63.0907802,92.8028767 C63.8251236,93.9913548 65.3822238,94.3571534 66.5666722,93.6174763 C67.7496592,92.8770648 68.1128121,91.3132392 67.3762767,90.1240265 C66.1604086,88.1562065 65.7614519,85.8262606 66.2553983,83.5631574 C66.7464219,81.3000542 68.0770083,79.3505975 70.0009149,78.0739752 L70.1010194,78.0027253 L88,64.3388999 L85.3519797,60 C70.8499766,70.6852848 62.6991304,76.1612453 61.3247026,82.4782488" id="Fill-657" fill="#000000"></path>
                                <path d="M129.675297,82.4782488 C130.452021,86.0400104 129.824358,89.706076 127.90922,92.8028767 C127.174876,93.9913548 125.617776,94.3571534 124.434058,93.6174763 C123.250341,92.8770648 122.887919,91.3132392 123.623723,90.1240265 C124.839591,88.1562065 125.238548,85.8262606 124.745332,83.5631574 C124.253578,81.3000542 122.922992,79.3505975 120.999816,78.0739752 L120.898981,78.0027253 L103,64.3388999 L105.64802,60 C120.150023,70.6852848 128.30087,76.1612453 129.675297,82.4782488" id="Fill-658" fill="#000000"></path>
                                <polyline id="Fill-659" fill="#000000" points="158 60.8141055 125 54 125 63.2330356 157.126329 69.8666789 157.99928 70 157.99928 60.9164902 158 60.8141055"></polyline>
                                <polyline id="Fill-660" fill="#000000" points="67.8684176 54 67.8684176 54 34 60.8161931 34.0007392 60.8906185 34.0007392 70 35.0326999 69.845254 68 63.2103348 67.8684176 63.2103348 67.8684176 54"></polyline>
                                <path d="M85.7937341,63 L106.205524,63 C108.84256,63 111,65.0249303 111,67.5 C111,69.9750697 108.84256,72 106.205524,72 L85.7937341,72 C83.1566978,72 81,69.9750697 81,67.5 C81,65.0249303 83.1566978,63 85.7937341,63" id="Fill-661" fill="#000000"></path>
                                <path d="M158,70.4002957 L158,60.5997043 C158,57.5203845 160.475182,55 163.499274,55 C166.524818,55 169,57.5203845 169,60.5997043 L169,70.4002957 C169,73.4796155 166.524818,76 163.499274,76 C160.475182,76 158,73.4803549 158,70.4002957" id="Fill-662" fill="#F2EFCD"></path>
                                <path d="M24,70.4002957 L24,60.5997043 C24,57.5203845 26.4753449,55 29.4996369,55 C32.5253812,55 35,57.5203845 35,60.5997043 L35,70.4002957 C35,73.4796155 32.5253812,76 29.4996369,76 C26.4753449,76 24,73.4803549 24,70.4002957" id="Fill-663" fill="#F2EFCD"></path>
                                <path d="M163.500358,35 C159.910052,35 157,37.9100523 157,41.500358 C157,45.0906637 159.910052,48 163.500358,48 C167.089948,48 170,45.0906637 170,41.500358 C170,37.9100523 167.089948,35 163.500358,35" id="Fill-664" fill="#513F4C"></path>
                                <path d="M29.5,35 C25.9094965,35 23,37.9100523 23,41.500358 C23,45.0906637 25.9094965,48 29.5,48 C33.0897874,48 36,45.0906637 36,41.500358 C36,37.9100523 33.0897874,35 29.5,35" id="Fill-665" fill="#513F4C"></path>
                                <path d="M74.7829072,45 C89.2609691,45 103.739031,45 118.21783,45 L124.999263,53.7412422 L125,63 L68,63 L68,53.7419763 L74.7829072,45" id="Fill-666" fill="#000000"></path>
                                <polyline id="Fill-667" fill="#0094CC" points="110 45 118.179865 45 124.999259 53.7408646 125 63 116.820135 63 116.820135 53.7408646 110 45"></polyline>
                                <path d="M163.591952,35 C162.261207,35 161.024356,35.4117323 160,36.1163316 C161.699965,37.2849353 162.816802,39.2605343 162.816802,41.500358 C162.816802,43.7401818 161.699965,45.7157808 160,46.8843845 C161.024356,47.5882677 162.261207,48 163.591952,48 C167.130957,48 170,45.0906637 170,41.500358 C170,37.9100523 167.130957,35 163.591952,35" id="Fill-668" fill="#352B32"></path>
                                <path d="M28.591952,35 C27.2612072,35 26.0243558,35.4117323 25,36.1163316 C26.6992587,37.2849353 27.816802,39.2605343 27.816802,41.500358 C27.816802,43.7401818 26.6992587,45.7157808 25,46.8843845 C26.0243558,47.5882677 27.2612072,48 28.591952,48 C32.1309566,48 35,45.0906637 35,41.500358 C35,37.9100523 32.1309566,35 28.591952,35" id="Fill-669" fill="#352B32"></path>
                                <path d="M98.7565731,63.3460268 L106.536447,63.3460268 C109.120281,63.3460268 111.234195,65.518096 111.234195,68.1730134 C111.234195,70.8279308 109.120281,73 106.536447,73 L98.7565731,73 C101.340408,73 103.454322,70.8279308 103.454322,68.1730134 C103.454322,65.518096 101.340408,63.3460268 98.7565731,63.3460268 Z M68.4016093,54 L61,55.5359953 L61,64.9051928 L68.531092,63.343037 L68.4016093,63.343037 L68.4016093,54 Z M158,60.8854445 L150.596936,59.3501967 L150.596936,68.7193942 L157.117626,70.0715185 L157.999273,70.2075531 L157.999273,60.9900865 L158,60.8854445 Z" id="Fill-670" fill="#AF3F3D"></path>
                                <path d="M26,55.8820237 C26.8597121,55.3238276 27.8793877,55 28.9699146,55 C32.0136023,55 34.5028962,57.5203845 34.5028962,60.5997043 L34.5028962,70.4002957 C34.5028962,73.4796155 32.0136023,76 28.9699146,76 C27.8793877,76 26.8597121,75.675433 26,75.1187157 C27.537548,74.1206168 28.5616061,72.3750528 28.5616061,70.4002957 L28.5616061,60.5997043 C28.5616061,58.6249472 27.537548,56.8801225 26,55.8820237 Z M160.496373,55.8820237 C161.355355,55.324567 162.375761,55 163.466288,55 C166.509976,55 169,57.5203845 169,60.5997043 L169,70.4002957 C169,73.4796155 166.509976,76 163.466288,76 C162.375761,76 161.356086,75.675433 160.497104,75.1187157 C162.034652,74.1206168 163.05871,72.3757921 163.05871,70.4002957 L163.05871,60.5997043 C163.05871,58.6249472 162.034652,56.8801225 160.496373,55.8820237 Z" id="Fill-671" fill="#BFBC93"></path>
                                <g id="Group-674" transform="translate(186.000000, 32.000000)">
                                    <mask id="mask-14" fill="white">
                                        <use xlink:href="#path-13"></use>
                                    </mask>
                                    <g id="Clip-673"></g>
                                    <path d="M2.6516,17.46792 C2.2344,17.46792 1.8116,17.35632 1.4259,17.1216 C0.2765,16.42464 -0.1064,14.9004 0.5719,13.71744 C1.4007,12.27168 1.8382,10.61352 1.8382,8.92224 C1.8382,7.23096 1.4,5.57136 0.5705,4.12416 C-0.1085,2.94192 0.2744,1.41768 1.4238,0.72 C1.8102,0.486 2.233,0.3744 2.6509,0.3744 C3.4783,0.3744 4.284,0.81072 4.7348,1.59696 C6.0032,3.80952 6.6738,6.34176 6.6738,8.92224 C6.6738,11.50128 6.0032,14.0328 4.7369,16.2432 C4.2854,17.02944 3.479,17.46792 2.6516,17.46792" id="Fill-672" fill="url(#linearGradient-15)" mask="url(#mask-14)"></path>
                                </g>
                                <g id="Group-677" transform="translate(135.000000, 32.000000)">
                                    <mask id="mask-17" fill="white">
                                        <use xlink:href="#path-16"></use>
                                    </mask>
                                    <g id="Clip-676"></g>
                                    <path d="M4.1552,17.46792 C3.3278,17.46792 2.5214,17.02872 2.0699,16.2432 C0.8036,14.0328 0.1337,11.50056 0.1337,8.92224 C0.1337,6.34176 0.8036,3.8088 2.072,1.59696 C2.5228,0.81144 3.3292,0.3744 4.1573,0.3744 C4.5745,0.3744 4.9973,0.48528 5.383,0.71928 C6.5331,1.41768 6.9153,2.94192 6.2363,4.12416 C5.4068,5.57064 4.9686,7.23096 4.9686,8.92224 C4.9686,10.61352 5.4061,12.27168 6.2349,13.71744 C7.1883,15.38064 6.0095,17.46792 4.1552,17.46792" id="Fill-675" fill="url(#linearGradient-18)" mask="url(#mask-17)"></path>
                                </g>
                                <g id="Group-680" transform="translate(51.000000, 32.000000)">
                                    <mask id="mask-20" fill="white">
                                        <use xlink:href="#path-19"></use>
                                    </mask>
                                    <g id="Clip-679"></g>
                                    <path d="M2.5186,17.46792 C2.1014,17.46792 1.6786,17.35632 1.2929,17.1216 C0.1435,16.42464 -0.2394,14.9004 0.4382,13.71744 C1.2677,12.27168 1.7052,10.61352 1.7052,8.92224 C1.7052,7.22952 1.267,5.57136 0.4368,4.12416 C-0.2415,2.94192 0.1407,1.41768 1.2908,0.72 C1.6765,0.486 2.1,0.3744 2.5179,0.3744 C3.3446,0.3744 4.1503,0.81072 4.6011,1.59696 C5.8702,3.80808 6.5401,6.34104 6.5401,8.92224 C6.5401,11.50128 5.8702,14.0328 4.6032,16.2432 C4.1524,17.02944 3.346,17.46792 2.5186,17.46792" id="Fill-678" fill="url(#linearGradient-21)" mask="url(#mask-20)"></path>
                                </g>
                                <g id="Group-683" transform="translate(0.000000, 32.000000)">
                                    <mask id="mask-23" fill="white">
                                        <use xlink:href="#path-22"></use>
                                    </mask>
                                    <g id="Clip-682"></g>
                                    <path d="M4.0215,17.48664 C1.2075,17.48664 0.0007,11.7468 0.0007,8.94168 C0.0007,5.54544 1.4693,0.35496 4.0166,0.35496 C4.4037,0.35496 4.8146,0.47448 5.25,0.738 C6.3994,1.4364 6.7816,2.96064 6.1033,4.14288 C5.2738,5.59008 4.8356,7.24968 4.8356,8.94168 C4.8356,10.63224 5.2738,12.2904 6.1019,13.73688 C6.7795,14.91984 6.3973,16.44408 5.2472,17.14104 C4.8622,17.37504 4.4387,17.48664 4.0215,17.48664" id="Fill-681" fill="url(#linearGradient-24)" mask="url(#mask-23)"></path>
                                </g>
                                <g id="Group-686" transform="translate(101.000000, 23.000000)">
                                    <mask id="mask-26" fill="white">
                                        <use xlink:href="#path-25"></use>
                                    </mask>
                                    <g id="Clip-685"></g>
                                    <path d="M2.91,16.7634783 C1.47975,16.7634783 0.3195,15.6200435 0.3195,14.2105217 L0.3195,2.79465217 C0.3195,1.11313043 1.62,0.266826087 2.9175,0.266826087 C4.20975,0.266826087 5.49975,1.10573913 5.49975,2.79465217 L5.49975,14.2105217 C5.49975,15.6200435 4.34025,16.7634783 2.91,16.7634783" id="Fill-684" fill="url(#linearGradient-27)" mask="url(#mask-26)"></path>
                                </g>
                                <g id="Group-689" transform="translate(85.000000, 15.000000)">
                                    <mask id="mask-29" fill="white">
                                        <use xlink:href="#path-28"></use>
                                    </mask>
                                    <g id="Clip-688"></g>
                                    <path d="M3.288,17.46525 C1.857,17.46525 0.6975,16.3065 0.6975,14.8755 L0.6975,2.86875 C0.6975,1.16175 1.998,0.30375 3.2955,0.30375 C4.58775,0.30375 5.87775,1.155 5.87775,2.86875 L5.87775,14.8755 C5.87775,16.3065 4.7175,17.46525 3.288,17.46525" id="Fill-687" fill="url(#linearGradient-30)" mask="url(#mask-29)"></path>
                                </g>
                                <g id="Group-692" transform="translate(85.000000, 6.000000)">
                                    <mask id="mask-32" fill="white">
                                        <use xlink:href="#path-31"></use>
                                    </mask>
                                    <g id="Clip-691"></g>
                                    <path d="M3.288,7.42545455 C1.857,7.42545455 0.6975,6.30181818 0.6975,4.91418182 L0.6975,2.71418182 C0.6975,1.05963636 1.998,0.226909091 3.29475,0.226909091 C4.58775,0.226909091 5.87775,1.05309091 5.87775,2.71418182 L5.87775,4.91418182 C5.87775,6.30181818 4.7175,7.42545455 3.288,7.42545455" id="Fill-690" fill="url(#linearGradient-33)" mask="url(#mask-32)"></path>
                                </g>
                                <path d="M152.26639,43 L144.73361,43 C143.230499,43 142,41.8746575 142,40.5 C142,39.1253425 143.230499,38 144.73361,38 L152.26639,38 C153.769501,38 155,39.1253425 155,40.5 C155,41.8746575 153.769501,43 152.26639,43" id="Fill-693" fill="#F2EFCD"></path>
                                <path d="M182.266233,43 L174.733767,43 C173.229821,43 172,41.8746575 172,40.5 C172,39.1253425 173.229821,38 174.733767,38 L182.266233,38 C183.770179,38 185,39.1253425 185,40.5 C185,41.8746575 183.770179,43 182.266233,43" id="Fill-694" fill="#F2EFCD"></path>
                                <path d="M17.2663901,43 L9.73360986,43 C8.23049891,43 7,41.8746575 7,40.5 C7,39.1253425 8.23049891,38 9.73360986,38 L17.2663901,38 C18.7695011,38 20,39.1253425 20,40.5 C20,41.8746575 18.7695011,43 17.2663901,43" id="Fill-695" fill="#F2EFCD"></path>
                                <path d="M48.2662326,43 L40.7337674,43 C39.2298208,43 38,41.8746575 38,40.5 C38,39.1253425 39.2298208,38 40.7337674,38 L48.2662326,38 C49.7701792,38 51,39.1253425 51,40.5 C51,41.8746575 49.7701792,43 48.2662326,43" id="Fill-696" fill="#F2EFCD"></path>
                                <path d="M102,60 C100.013964,60 98.8545996,60 96.8700103,60 L96.8700103,54 C98.8545996,54 100.015411,54 102,54 L102,60 Z M91.5649949,60 C89.5804056,60 88.4203177,60 86.4357284,60 L86.4357284,54 C88.4217642,54 89.5804056,54 91.5649949,54 L91.5649949,60 Z M81.1299897,60 C79.1656513,60 77.9853125,60 76,60 L76,54 C77.9643384,54 79.1454004,54 81.1299897,54 L81.1299897,60 Z" id="Fill-697" fill="#F2EFCD"></path>
                            </g>
                            <g id="Smartphone" transform="translate(0.000000, 27.000000)">
                                <path d="M21.9666852,0 L61.0333148,0 C63.2167314,0 65,1.81983641 65,4.04344072 L65,72.9574457 C65,75.1801636 63.2167314,77 61.0333148,77 L21.9666852,77 C19.787618,77 18,75.1806068 18,72.9574457 L18,4.04344072 C18,1.8193932 19.7832686,0 21.9666852,0" id="Fill-386" fill="#000000"></path>
                                <path d="M56,0 L60.803681,0 C63.1134969,0 65,1.81983641 65,4.04344072 L65,72.9574457 C65,75.1801636 63.1134969,77 60.803681,77 L56,77 C58.3052147,77 60.196319,75.1801636 60.196319,72.9574457 L60.196319,4.04344072 C60.196319,1.81983641 58.3052147,0 56,0" id="Fill-387" fill="#352B32"></path>
                                <polygon id="Fill-388" fill="#000000" points="18 66 65 66 65 10 18 10"></polygon>
                                <polygon id="Fill-404" fill="#85F8FF" points="26 43 53 43 53 33 26 33"></polygon>
                                <polygon id="Fill-389" fill="#505050" points="60 66 65 66 65 10 60 10"></polygon>
                                <path d="M17.8008999,24 L17.8097238,49.4326535 L22.7775866,40.3998776 C23.3158453,38.4541071 25.3365212,37.327147 27.2954298,37.8623544 C29.2543384,38.3953702 30.405859,40.4139043 29.8676003,42.3618665 L25.1953386,60.8574252 C23.9070474,64.5508386 20.7877943,66.3234667 17.792076,66.4961708 L17.8008999,77 L3.3473311,77 L3.37380284,64.3601628 L3.37380284,64.3597244 C2.89289961,62.4345557 2.87525178,60.4239116 3.32527132,58.4917295 L9.40494708,32.3340694 C10.5652916,28.192239 13.6360132,24.9967745 17.8008999,24" id="Fill-390" fill="#F8D2AB"></path>
                                <path d="M17.9952199,24 L18,49.2017128 L16.2791587,52.0766983 C15.375717,53.5848659 13.0047801,53.1909188 13.0047801,51.2922941 L13,26.3170027 C14.4101338,25.2197966 16.0975143,24.4170692 17.9952199,24" id="Fill-394" fill="#ECB382"></path>
                                <path d="M23.9438348,38.7979395 C25.0676516,39.6772685 25.6117216,41.1586333 25.2058989,42.6008201 L20.4831927,60.9687859 C19.1809923,64.6367201 16.0280619,66.3971195 13,66.5686322 L13.0089192,77 L17.6691911,77 L17.660272,66.5686322 C20.6883338,66.3971195 23.8412643,64.6367201 25.1434646,60.9687859 L29.8661709,42.6008201 C30.4102409,40.6662961 29.2462878,38.661687 27.2662297,38.1323483 C26.0665999,37.8097825 24.8446721,38.0940409 23.9438348,38.7979395" id="Fill-395" fill="#ECB382"></path>
                                <polyline id="Fill-399" fill="#ECB382" points="17.9957265 73 18 77 4 77 4.00854701 73 17.9957265 73"></polyline>
                                <polygon id="Fill-400" fill="#D79869" points="13 77 18 77 18 73 13 73"></polygon>
                                <polygon id="Fill-401" fill="#0094CC" points="0 93 21 93 21 77 0 77"></polygon>
                                <polygon id="Fill-402" fill="#0094CC" points="12 93 21 93 21 77 12 77"></polygon>
                            </g>
                        </g>
                    </g>
                </g>
            </g>
        </g>
    </g>
</svg>