<?xml version="1.0" encoding="UTF-8"?>
<svg width="165px" height="132px" viewBox="0 0 165 132" version="1.1" xmlns="http://www.w3.org/2000/svg" xmlns:xlink="http://www.w3.org/1999/xlink">
    <!-- Generator: Sketch 52.6 (67491) - http://www.bohemiancoding.com/sketch -->
    <title>illustration_4@1,5x</title>
    <desc>Created with Sketch.</desc>
    <defs>
        <path d="M15.4613571,5.9886 C15.0775714,5.9886 14.6886429,5.8956 14.3344286,5.7006 C12.6977143,4.7988 10.8025714,4.3476 8.90678571,4.3476 C7.01228571,4.3476 5.11778571,4.7982 3.48042857,5.6994 C3.12621429,5.8938 2.73792857,5.9862 2.35478571,5.9862 C1.59428571,5.9862 0.853714286,5.6214 0.440357143,4.9656 C-0.182571429,3.9798 0.169071429,2.7096 1.22528571,2.1282 C3.546,0.8526 6.20164286,0.1782 8.90678571,0.1782 C11.6138571,0.1782 14.2714286,0.8544 16.5915,2.1312 C17.6477143,2.7132 17.9987143,3.9834 17.3757857,4.9692 C16.9617857,5.625 16.2205714,5.9886 15.4613571,5.9886" id="path-1"></path>
        <linearGradient x1="-287.292714%" y1="1725.981%" x2="-287.292714%" y2="-170.218918%" id="linearGradient-3">
            <stop stop-color="#F0CE8A" offset="0%"></stop>
            <stop stop-color="#D8AD72" offset="100%"></stop>
        </linearGradient>
        <path d="M2.23264286,6.37890909 C0.270642857,6.37890909 -0.988714286,3.49936364 1.13914286,2.25718182 C3.50228571,0.878818182 6.16114286,0.189 8.82,0.189 C11.4795,0.189 14.1396429,0.878818182 16.5053571,2.26036364 C18.4480714,3.39563636 17.6226429,6.35154545 15.3752143,6.35154545 C14.9907857,6.35154545 14.6025,6.25290909 14.2482857,6.04609091 C12.6115714,5.089 10.7157857,4.61045455 8.82064286,4.61045455 C6.92614286,4.61045455 5.03164286,5.08836364 3.39364286,6.04481818 C2.99378571,6.27709091 2.601,6.37890909 2.23264286,6.37890909" id="path-4"></path>
        <linearGradient x1="386.958532%" y1="1718.35098%" x2="386.958532%" y2="-169.466434%" id="linearGradient-6">
            <stop stop-color="#F0CE8A" offset="0%"></stop>
            <stop stop-color="#D8AD72" offset="100%"></stop>
        </linearGradient>
        <path d="M25.2553636,8.57571429 C24.8124545,8.57571429 24.3657273,8.44071429 23.9781818,8.15978571 C21.0292727,6.02742857 17.5470909,4.89985714 13.9077273,4.89985714 C10.2728182,4.89985714 6.79318182,6.0255 3.84618182,8.154 C3.45927273,8.43428571 3.01254545,8.56864286 2.57027273,8.56864286 C1.88554545,8.56864286 1.20972727,8.24528571 0.780181818,7.63971429 C0.0738181818,6.642 0.302909091,5.256 1.28990909,4.54178571 C4.98718182,1.872 9.35072727,0.460285714 13.9077273,0.460285714 C18.4691818,0.460285714 22.8365455,1.87457143 26.537,4.5495 C27.5233636,5.26307143 27.7505455,6.65035714 27.0441818,7.64678571 C26.6152727,8.25171429 25.9400909,8.57507143 25.2553636,8.57571429" id="path-7"></path>
        <linearGradient x1="-166.379228%" y1="1407.83428%" x2="-166.379228%" y2="-46.7601394%" id="linearGradient-9">
            <stop stop-color="#F0CE8A" offset="0%"></stop>
            <stop stop-color="#D8AD72" offset="100%"></stop>
        </linearGradient>
        <path d="M2.47672727,8.60014286 C0.630636364,8.60014286 -0.729909091,5.93935714 1.20463636,4.54178571 C4.97636364,1.818 9.39909091,0.457071429 13.8218182,0.457071429 C18.2496364,0.457071429 22.6780909,1.82185714 26.4510909,4.5495 C28.1909091,5.80757143 27.2910909,8.57571429 25.1700909,8.57571429 C24.7138182,8.57571429 24.2696364,8.43364286 23.8922727,8.15978571 C20.8841818,5.98435714 17.3536364,4.89664286 13.8224545,4.89664286 C10.2950909,4.89664286 6.76645455,5.98307143 3.76027273,8.154 C3.32945455,8.46642857 2.891,8.60014286 2.47672727,8.60014286" id="path-10"></path>
        <linearGradient x1="266.111042%" y1="1403.09466%" x2="266.111042%" y2="-46.5619326%" id="linearGradient-12">
            <stop stop-color="#F0CE8A" offset="0%"></stop>
            <stop stop-color="#D8AD72" offset="100%"></stop>
        </linearGradient>
        <path d="M2.2728,15.52704 C1.9152,15.52704 1.5528,15.42784 1.2222,15.2192 C0.237,14.59968 -0.0912,13.2448 0.4902,12.19328 C1.2006,10.90816 1.5756,9.43424 1.5756,7.93088 C1.5756,6.42752 1.2,4.95232 0.489,3.66592 C-0.093,2.61504 0.2352,1.26016 1.2204,0.64 C1.5516,0.432 1.914,0.3328 2.2722,0.3328 C2.9814,0.3328 3.672,0.72064 4.0584,1.41952 C5.1456,3.38624 5.7204,5.63712 5.7204,7.93088 C5.7204,10.22336 5.1456,12.4736 4.0602,14.4384 C3.6732,15.13728 2.982,15.52704 2.2728,15.52704" id="path-13"></path>
        <linearGradient x1="-1332.40884%" y1="568.303778%" x2="-1332.40884%" y2="-205.15985%" id="linearGradient-15">
            <stop stop-color="#F0CE8A" offset="0%"></stop>
            <stop stop-color="#D8AD72" offset="100%"></stop>
        </linearGradient>
        <path d="M3.5616,15.52704 C2.8524,15.52704 2.1612,15.13664 1.7742,14.4384 C0.6888,12.4736 0.1146,10.22272 0.1146,7.93088 C0.1146,5.63712 0.6888,3.3856 1.776,1.41952 C2.1624,0.72128 2.8536,0.3328 3.5634,0.3328 C3.921,0.3328 4.2834,0.43136 4.614,0.63936 C5.5998,1.26016 5.9274,2.61504 5.3454,3.66592 C4.6344,4.95168 4.2588,6.42752 4.2588,7.93088 C4.2588,9.43424 4.6338,10.90816 5.3442,12.19328 C6.1614,13.67168 5.151,15.52704 3.5616,15.52704" id="path-16"></path>
        <linearGradient x1="-569.87723%" y1="568.303778%" x2="-569.87723%" y2="-205.15985%" id="linearGradient-18">
            <stop stop-color="#F0CE8A" offset="0%"></stop>
            <stop stop-color="#D8AD72" offset="100%"></stop>
        </linearGradient>
        <path d="M2.1588,15.52704 C1.8012,15.52704 1.4388,15.42784 1.1082,15.2192 C0.123,14.59968 -0.2052,13.2448 0.3756,12.19328 C1.0866,10.90816 1.4616,9.43424 1.4616,7.93088 C1.4616,6.42624 1.086,4.95232 0.3744,3.66592 C-0.207,2.61504 0.1206,1.26016 1.1064,0.64 C1.437,0.432 1.8,0.3328 2.1582,0.3328 C2.8668,0.3328 3.5574,0.72064 3.9438,1.41952 C5.0316,3.38496 5.6058,5.63648 5.6058,7.93088 C5.6058,10.22336 5.0316,12.4736 3.9456,14.4384 C3.5592,15.13728 2.868,15.52704 2.1588,15.52704" id="path-19"></path>
        <linearGradient x1="669.919154%" y1="568.303778%" x2="669.919154%" y2="-205.15985%" id="linearGradient-21">
            <stop stop-color="#F0CE8A" offset="0%"></stop>
            <stop stop-color="#D8AD72" offset="100%"></stop>
        </linearGradient>
        <path d="M3.447,15.54368 C1.035,15.54368 0.0006,10.4416 0.0006,7.94816 C0.0006,4.92928 1.2594,0.31552 3.4428,0.31552 C3.7746,0.31552 4.1268,0.42176 4.5,0.656 C5.4852,1.2768 5.8128,2.63168 5.2314,3.68256 C4.5204,4.96896 4.1448,6.44416 4.1448,7.94816 C4.1448,9.45088 4.5204,10.9248 5.2302,12.21056 C5.811,13.26208 5.4834,14.61696 4.4976,15.23648 C4.1676,15.44448 3.8046,15.54368 3.447,15.54368" id="path-22"></path>
        <linearGradient x1="1432.62292%" y1="567.151383%" x2="1432.62292%" y2="-204.589392%" id="linearGradient-24">
            <stop stop-color="#F0CE8A" offset="0%"></stop>
            <stop stop-color="#D8AD72" offset="100%"></stop>
        </linearGradient>
        <path d="M2.425,13.8052174 C1.233125,13.8052174 0.26625,12.8635652 0.26625,11.7027826 L0.26625,2.30147826 C0.26625,0.916695652 1.35,0.21973913 2.43125,0.21973913 C3.508125,0.21973913 4.583125,0.910608696 4.583125,2.30147826 L4.583125,11.7027826 C4.583125,12.8635652 3.616875,13.8052174 2.425,13.8052174" id="path-25"></path>
        <linearGradient x1="-96.4094397%" y1="654.509611%" x2="-96.4094397%" y2="-168.233344%" id="linearGradient-27">
            <stop stop-color="#F0CE8A" offset="0%"></stop>
            <stop stop-color="#D8AD72" offset="100%"></stop>
        </linearGradient>
        <path d="M2.74,14.554375 C1.5475,14.554375 0.58125,13.58875 0.58125,12.39625 L0.58125,2.390625 C0.58125,0.968125 1.665,0.253125 2.74625,0.253125 C3.823125,0.253125 4.898125,0.9625 4.898125,2.390625 L4.898125,12.39625 C4.898125,13.58875 3.93125,14.554375 2.74,14.554375" id="path-28"></path>
        <linearGradient x1="200.332996%" y1="686.286164%" x2="200.332996%" y2="-116.213618%" id="linearGradient-30">
            <stop stop-color="#F0CE8A" offset="0%"></stop>
            <stop stop-color="#D8AD72" offset="100%"></stop>
        </linearGradient>
        <path d="M2.74,6.49727273 C1.5475,6.49727273 0.58125,5.51409091 0.58125,4.29990909 L0.58125,2.37490909 C0.58125,0.927181818 1.665,0.198545455 2.745625,0.198545455 C3.823125,0.198545455 4.898125,0.921454545 4.898125,2.37490909 L4.898125,4.29990909 C4.898125,5.51409091 3.93125,6.49727273 2.74,6.49727273" id="path-31"></path>
        <linearGradient x1="200.332996%" y1="1718.82198%" x2="200.332996%" y2="-136.381087%" id="linearGradient-33">
            <stop stop-color="#F0CE8A" offset="0%"></stop>
            <stop stop-color="#D8AD72" offset="100%"></stop>
        </linearGradient>
        <path d="M0.0394029851,33.0896418 C0.0394029851,51.2391493 14.7519851,65.9517313 32.9014925,65.9517313 L32.9014925,0.227552239 C14.7519851,0.227552239 0.0394029851,14.9406269 0.0394029851,33.0896418" id="path-34"></path>
        <linearGradient x1="50%" y1="0%" x2="50%" y2="101.858513%" id="linearGradient-36">
            <stop stop-color="#EEBD67" offset="0%"></stop>
            <stop stop-color="#CB8944" offset="100%"></stop>
        </linearGradient>
    </defs>
    <g id="Alzagro-Landing" stroke="none" stroke-width="1" fill="none" fill-rule="evenodd">
        <g id="Alzagro_Web_UX_draft" transform="translate(-1027.000000, -1664.000000)">
            <g id="The-solution" transform="translate(149.000000, 865.000000)">
                <g id="how-it-works" transform="translate(1.000000, 706.000000)">
                    <g id="4" transform="translate(877.000000, 93.000000)">
                        <g id="illustration_4">
                            <g id="Drone">
                                <g id="Group-636" transform="translate(131.000000, 7.000000)">
                                    <mask id="mask-2" fill="white">
                                        <use xlink:href="#path-1"></use>
                                    </mask>
                                    <g id="Clip-635"></g>
                                    <path d="M15.4613571,5.9886 C15.0775714,5.9886 14.6886429,5.8956 14.3344286,5.7006 C12.6977143,4.7988 10.8025714,4.3476 8.90678571,4.3476 C7.01228571,4.3476 5.11778571,4.7982 3.48042857,5.6994 C3.12621429,5.8938 2.73792857,5.9862 2.35478571,5.9862 C1.59428571,5.9862 0.853714286,5.6214 0.440357143,4.9656 C-0.182571429,3.9798 0.169071429,2.7096 1.22528571,2.1282 C3.546,0.8526 6.20164286,0.1782 8.90678571,0.1782 C11.6138571,0.1782 14.2714286,0.8544 16.5915,2.1312 C17.6477143,2.7132 17.9987143,3.9834 17.3757857,4.9692 C16.9617857,5.625 16.2205714,5.9886 15.4613571,5.9886" id="Fill-634" fill="url(#linearGradient-3)" mask="url(#mask-2)"></path>
                                </g>
                                <g id="Group-639" transform="translate(16.000000, 7.000000)">
                                    <mask id="mask-5" fill="white">
                                        <use xlink:href="#path-4"></use>
                                    </mask>
                                    <g id="Clip-638"></g>
                                    <path d="M2.23264286,6.37890909 C0.270642857,6.37890909 -0.988714286,3.49936364 1.13914286,2.25718182 C3.50228571,0.878818182 6.16114286,0.189 8.82,0.189 C11.4795,0.189 14.1396429,0.878818182 16.5053571,2.26036364 C18.4480714,3.39563636 17.6226429,6.35154545 15.3752143,6.35154545 C14.9907857,6.35154545 14.6025,6.25290909 14.2482857,6.04609091 C12.6115714,5.089 10.7157857,4.61045455 8.82064286,4.61045455 C6.92614286,4.61045455 5.03164286,5.08836364 3.39364286,6.04481818 C2.99378571,6.27709091 2.601,6.37890909 2.23264286,6.37890909" id="Fill-637" fill="url(#linearGradient-6)" mask="url(#mask-5)"></path>
                                </g>
                                <g id="Group-642" transform="translate(126.000000, 0.000000)">
                                    <mask id="mask-8" fill="white">
                                        <use xlink:href="#path-7"></use>
                                    </mask>
                                    <g id="Clip-641"></g>
                                    <path d="M25.2553636,8.57571429 C24.8124545,8.57571429 24.3657273,8.44071429 23.9781818,8.15978571 C21.0292727,6.02742857 17.5470909,4.89985714 13.9077273,4.89985714 C10.2728182,4.89985714 6.79318182,6.0255 3.84618182,8.154 C3.45927273,8.43428571 3.01254545,8.56864286 2.57027273,8.56864286 C1.88554545,8.56864286 1.20972727,8.24528571 0.780181818,7.63971429 C0.0738181818,6.642 0.302909091,5.256 1.28990909,4.54178571 C4.98718182,1.872 9.35072727,0.460285714 13.9077273,0.460285714 C18.4691818,0.460285714 22.8365455,1.87457143 26.537,4.5495 C27.5233636,5.26307143 27.7505455,6.65035714 27.0441818,7.64678571 C26.6152727,8.25171429 25.9400909,8.57507143 25.2553636,8.57571429" id="Fill-640" fill="url(#linearGradient-9)" mask="url(#mask-8)"></path>
                                </g>
                                <g id="Group-645" transform="translate(11.000000, 0.000000)">
                                    <mask id="mask-11" fill="white">
                                        <use xlink:href="#path-10"></use>
                                    </mask>
                                    <g id="Clip-644"></g>
                                    <path d="M2.47672727,8.60014286 C0.630636364,8.60014286 -0.729909091,5.93935714 1.20463636,4.54178571 C4.97636364,1.818 9.39909091,0.457071429 13.8218182,0.457071429 C18.2496364,0.457071429 22.6780909,1.82185714 26.4510909,4.5495 C28.1909091,5.80757143 27.2910909,8.57571429 25.1700909,8.57571429 C24.7138182,8.57571429 24.2696364,8.43364286 23.8922727,8.15978571 C20.8841818,5.98435714 17.3536364,4.89664286 13.8224545,4.89664286 C10.2950909,4.89664286 6.76645455,5.98307143 3.76027273,8.154 C3.32945455,8.46642857 2.891,8.60014286 2.47672727,8.60014286" id="Fill-643" fill="url(#linearGradient-12)" mask="url(#mask-11)"></path>
                                </g>
                                <polygon id="Fill-655" fill="#AF3F3D" points="138 49 141 49 141 40 138 40"></polygon>
                                <polygon id="Fill-656" fill="#AF3F3D" points="23 49 26 49 26 40 23 40"></polygon>
                                <path d="M52.2765986,70.1726239 C51.6149453,73.2105971 52.1496209,76.3375354 53.781035,78.9789243 C54.4065868,79.9926262 55.7330055,80.3046308 56.74198,79.6737298 C57.7497097,79.0422023 58.0590622,77.708351 57.4316431,76.6940226 C56.3959036,75.0155879 56.0560516,73.0282811 56.4768208,71.0979872 C56.8951002,69.1676933 58.0285626,67.5049214 59.667446,66.4160377 L59.7527202,66.3552657 L75,54.7008264 L72.744279,51 C60.3907208,60.1139194 53.4474074,64.7845916 52.2765986,70.1726239" id="Fill-657" fill="#000000"></path>
                                <path d="M110.723401,70.1726239 C111.385055,73.2105971 110.850379,76.3375354 109.218965,78.9789243 C108.593413,79.9926262 107.266995,80.3046308 106.258642,79.6737298 C105.25029,79.0422023 104.94156,77.708351 105.568357,76.6940226 C106.604096,75.0155879 106.943948,73.0282811 106.523802,71.0979872 C106.1049,69.1676933 104.971437,67.5049214 103.333176,66.4160377 L103.24728,66.3552657 L88,54.7008264 L90.255721,51 C102.609279,60.1139194 109.552593,64.7845916 110.723401,70.1726239" id="Fill-658" fill="#000000"></path>
                                <polyline id="Fill-659" fill="#000000" points="135 50.9623423 106 45 106 53.0789062 134.232228 58.8833441 134.999367 59 134.999367 51.0519289 135 50.9623423"></polyline>
                                <polyline id="Fill-660" fill="#000000" points="57.887768 45 57.887768 45 29 50.9641689 29.0006305 51.0292912 29.0006305 59 29.8808323 58.8645972 58 53.059043 57.887768 53.059043 57.887768 45"></polyline>
                                <path d="M73.9947784,54 L91.0046029,54 C93.2021332,54 95,55.7999381 95,58 C95,60.2000619 93.2021332,62 91.0046029,62 L73.9947784,62 C71.7972481,62 70,60.2000619 70,58 C70,55.7999381 71.7972481,54 73.9947784,54" id="Fill-661" fill="#000000"></path>
                                <path d="M135,60.2002535 L135,51.7997465 C135,49.1603295 137.025149,47 139.499406,47 C141.974851,47 144,49.1603295 144,51.7997465 L144,60.2002535 C144,62.8396705 141.974851,65 139.499406,65 C137.025149,65 135,62.8403042 135,60.2002535" id="Fill-662" fill="#F2EFCD"></path>
                                <path d="M20,60.2002535 L20,51.7997465 C20,49.1603295 22.0252822,47 24.499703,47 C26.9753119,47 29,49.1603295 29,51.7997465 L29,60.2002535 C29,62.8396705 26.9753119,65 24.499703,65 C22.0252822,65 20,62.8403042 20,60.2002535" id="Fill-663" fill="#F2EFCD"></path>
                                <path d="M139.500303,30 C136.462352,30 134,32.462352 134,35.5003029 C134,38.5382539 136.462352,41 139.500303,41 C142.537648,41 145,38.5382539 145,35.5003029 C145,32.462352 142.537648,30 139.500303,30" id="Fill-664" fill="#513F4C"></path>
                                <path d="M24.5,30 C21.4618817,30 19,32.462352 19,35.5003029 C19,38.5382539 21.4618817,41 24.5,41 C27.5375124,41 30,38.5382539 30,35.5003029 C30,32.462352 27.5375124,30 24.5,30" id="Fill-665" fill="#513F4C"></path>
                                <path d="M63.7119218,38 C75.9039739,38 88.0960261,38 100.288699,38 L105.999379,45.2843685 L106,53 L58,53 L58,45.2849802 L63.7119218,38" id="Fill-666" fill="#000000"></path>
                                <polyline id="Fill-667" fill="#0094CC" points="94 38 101.089216 38 106.999358 45.2840538 107 53 99.910784 53 99.910784 45.2840538 94 38"></polyline>
                                <path d="M140.232757,30 C139.035086,30 137.92192,30.3483889 137,30.9445883 C138.529968,31.9334068 139.535122,33.6050675 139.535122,35.5003029 C139.535122,37.3955384 138.529968,39.0671991 137,40.0560176 C137.92192,40.6516111 139.035086,41 140.232757,41 C143.417861,41 146,38.5382539 146,35.5003029 C146,32.462352 143.417861,30 140.232757,30" id="Fill-668" fill="#352B32"></path>
                                <path d="M25.2327568,30 C24.0350865,30 22.9219202,30.3483889 22,30.9445883 C23.5293329,31.9334068 24.5351218,33.6050675 24.5351218,35.5003029 C24.5351218,37.3955384 23.5293329,39.0671991 22,40.0560176 C22.9219202,40.6516111 24.0350865,41 25.2327568,41 C28.4178609,41 31,38.5382539 31,35.5003029 C31,32.462352 28.4178609,30 25.2327568,30" id="Fill-669" fill="#352B32"></path>
                                <path d="M84.3071708,53.8703383 L90.9641759,53.8703383 C93.1750859,53.8703383 94.983899,55.6994493 94.983899,57.9351692 C94.983899,60.1708891 93.1750859,62 90.9641759,62 L84.3071708,62 C86.5180808,62 88.3268939,60.1708891 88.3268939,57.9351692 C88.3268939,55.6994493 86.5180808,53.8703383 84.3071708,53.8703383 Z M58.3333358,46 L52,47.2934697 L52,55.1833202 L58.4441303,53.8678206 L58.3333358,53.8678206 L58.3333358,46 Z M135,51.7982691 L128.665419,50.5054288 L128.665419,58.3952793 L134.244979,59.5339103 L134.999378,59.6484658 L134.999378,51.8863887 L135,51.7982691 Z" id="Fill-670" fill="#AF3F3D"></path>
                                <path d="M22,47.7560203 C22.7334607,47.2775665 23.6033937,47 24.5337733,47 C27.1304859,47 29.2542191,49.1603295 29.2542191,51.7997465 L29.2542191,60.2002535 C29.2542191,62.8396705 27.1304859,65 24.5337733,65 C23.6033937,65 22.7334607,64.7217997 22,64.2446134 C23.3117542,63.3891001 24.1854262,61.8929024 24.1854262,60.2002535 L24.1854262,51.7997465 C24.1854262,50.1070976 23.3117542,48.6115336 22,47.7560203 Z M136.745158,47.7560203 C137.477995,47.2782003 138.348551,47 139.278931,47 C141.875644,47 144,49.1603295 144,51.7997465 L144,60.2002535 C144,62.8396705 141.875644,65 139.278931,65 C138.348551,65 137.478618,64.7217997 136.745781,64.2446134 C138.057535,63.3891001 138.931207,61.8935361 138.931207,60.2002535 L138.931207,51.7997465 C138.931207,50.1070976 138.057535,48.6115336 136.745158,47.7560203 Z" id="Fill-671" fill="#BFBC93"></path>
                                <g id="Group-674" transform="translate(159.000000, 27.000000)">
                                    <mask id="mask-14" fill="white">
                                        <use xlink:href="#path-13"></use>
                                    </mask>
                                    <g id="Clip-673"></g>
                                    <path d="M2.2728,15.52704 C1.9152,15.52704 1.5528,15.42784 1.2222,15.2192 C0.237,14.59968 -0.0912,13.2448 0.4902,12.19328 C1.2006,10.90816 1.5756,9.43424 1.5756,7.93088 C1.5756,6.42752 1.2,4.95232 0.489,3.66592 C-0.093,2.61504 0.2352,1.26016 1.2204,0.64 C1.5516,0.432 1.914,0.3328 2.2722,0.3328 C2.9814,0.3328 3.672,0.72064 4.0584,1.41952 C5.1456,3.38624 5.7204,5.63712 5.7204,7.93088 C5.7204,10.22336 5.1456,12.4736 4.0602,14.4384 C3.6732,15.13728 2.982,15.52704 2.2728,15.52704" id="Fill-672" fill="url(#linearGradient-15)" mask="url(#mask-14)"></path>
                                </g>
                                <g id="Group-677" transform="translate(115.000000, 27.000000)">
                                    <mask id="mask-17" fill="white">
                                        <use xlink:href="#path-16"></use>
                                    </mask>
                                    <g id="Clip-676"></g>
                                    <path d="M3.5616,15.52704 C2.8524,15.52704 2.1612,15.13664 1.7742,14.4384 C0.6888,12.4736 0.1146,10.22272 0.1146,7.93088 C0.1146,5.63712 0.6888,3.3856 1.776,1.41952 C2.1624,0.72128 2.8536,0.3328 3.5634,0.3328 C3.921,0.3328 4.2834,0.43136 4.614,0.63936 C5.5998,1.26016 5.9274,2.61504 5.3454,3.66592 C4.6344,4.95168 4.2588,6.42752 4.2588,7.93088 C4.2588,9.43424 4.6338,10.90816 5.3442,12.19328 C6.1614,13.67168 5.151,15.52704 3.5616,15.52704" id="Fill-675" fill="url(#linearGradient-18)" mask="url(#mask-17)"></path>
                                </g>
                                <g id="Group-680" transform="translate(44.000000, 27.000000)">
                                    <mask id="mask-20" fill="white">
                                        <use xlink:href="#path-19"></use>
                                    </mask>
                                    <g id="Clip-679"></g>
                                    <path d="M2.1588,15.52704 C1.8012,15.52704 1.4388,15.42784 1.1082,15.2192 C0.123,14.59968 -0.2052,13.2448 0.3756,12.19328 C1.0866,10.90816 1.4616,9.43424 1.4616,7.93088 C1.4616,6.42624 1.086,4.95232 0.3744,3.66592 C-0.207,2.61504 0.1206,1.26016 1.1064,0.64 C1.437,0.432 1.8,0.3328 2.1582,0.3328 C2.8668,0.3328 3.5574,0.72064 3.9438,1.41952 C5.0316,3.38496 5.6058,5.63648 5.6058,7.93088 C5.6058,10.22336 5.0316,12.4736 3.9456,14.4384 C3.5592,15.13728 2.868,15.52704 2.1588,15.52704" id="Fill-678" fill="url(#linearGradient-21)" mask="url(#mask-20)"></path>
                                </g>
                                <g id="Group-683" transform="translate(0.000000, 27.000000)">
                                    <mask id="mask-23" fill="white">
                                        <use xlink:href="#path-22"></use>
                                    </mask>
                                    <g id="Clip-682"></g>
                                    <path d="M3.447,15.54368 C1.035,15.54368 0.0006,10.4416 0.0006,7.94816 C0.0006,4.92928 1.2594,0.31552 3.4428,0.31552 C3.7746,0.31552 4.1268,0.42176 4.5,0.656 C5.4852,1.2768 5.8128,2.63168 5.2314,3.68256 C4.5204,4.96896 4.1448,6.44416 4.1448,7.94816 C4.1448,9.45088 4.5204,10.9248 5.2302,12.21056 C5.811,13.26208 5.4834,14.61696 4.4976,15.23648 C4.1676,15.44448 3.8046,15.54368 3.447,15.54368" id="Fill-681" fill="url(#linearGradient-24)" mask="url(#mask-23)"></path>
                                </g>
                                <g id="Group-686" transform="translate(86.000000, 20.000000)">
                                    <mask id="mask-26" fill="white">
                                        <use xlink:href="#path-25"></use>
                                    </mask>
                                    <g id="Clip-685"></g>
                                    <path d="M2.425,13.8052174 C1.233125,13.8052174 0.26625,12.8635652 0.26625,11.7027826 L0.26625,2.30147826 C0.26625,0.916695652 1.35,0.21973913 2.43125,0.21973913 C3.508125,0.21973913 4.583125,0.910608696 4.583125,2.30147826 L4.583125,11.7027826 C4.583125,12.8635652 3.616875,13.8052174 2.425,13.8052174" id="Fill-684" fill="url(#linearGradient-27)" mask="url(#mask-26)"></path>
                                </g>
                                <g id="Group-689" transform="translate(73.000000, 13.000000)">
                                    <mask id="mask-29" fill="white">
                                        <use xlink:href="#path-28"></use>
                                    </mask>
                                    <g id="Clip-688"></g>
                                    <path d="M2.74,14.554375 C1.5475,14.554375 0.58125,13.58875 0.58125,12.39625 L0.58125,2.390625 C0.58125,0.968125 1.665,0.253125 2.74625,0.253125 C3.823125,0.253125 4.898125,0.9625 4.898125,2.390625 L4.898125,12.39625 C4.898125,13.58875 3.93125,14.554375 2.74,14.554375" id="Fill-687" fill="url(#linearGradient-30)" mask="url(#mask-29)"></path>
                                </g>
                                <g id="Group-692" transform="translate(73.000000, 5.000000)">
                                    <mask id="mask-32" fill="white">
                                        <use xlink:href="#path-31"></use>
                                    </mask>
                                    <g id="Clip-691"></g>
                                    <path d="M2.74,6.49727273 C1.5475,6.49727273 0.58125,5.51409091 0.58125,4.29990909 L0.58125,2.37490909 C0.58125,0.927181818 1.665,0.198545455 2.745625,0.198545455 C3.823125,0.198545455 4.898125,0.921454545 4.898125,2.37490909 L4.898125,4.29990909 C4.898125,5.51409091 3.93125,6.49727273 2.74,6.49727273" id="Fill-690" fill="url(#linearGradient-33)" mask="url(#mask-32)"></path>
                                </g>
                                <path d="M129.686946,37 L123.313054,37 C122.041191,37 121,35.8746575 121,34.5 C121,33.1253425 122.041191,32 123.313054,32 L129.686946,32 C130.958809,32 132,33.1253425 132,34.5 C132,35.8746575 130.958809,37 129.686946,37" id="Fill-693" fill="#F2EFCD"></path>
                                <path d="M155.686812,37 L149.313188,37 C148.040618,37 147,35.8746575 147,34.5 C147,33.1253425 148.040618,32 149.313188,32 L155.686812,32 C156.959382,32 158,33.1253425 158,34.5 C158,35.8746575 156.959382,37 155.686812,37" id="Fill-694" fill="#F2EFCD"></path>
                                <path d="M14.6869455,37 L8.3130545,37 C7.04119138,37 6,35.8746575 6,34.5 C6,33.1253425 7.04119138,32 8.3130545,32 L14.6869455,32 C15.9588086,32 17,33.1253425 17,34.5 C17,35.8746575 15.9588086,37 14.6869455,37" id="Fill-695" fill="#F2EFCD"></path>
                                <path d="M40.6868122,37 L34.3131878,37 C33.0406176,37 32,35.8746575 32,34.5 C32,33.1253425 33.0406176,32 34.3131878,32 L40.6868122,32 C41.9593824,32 43,33.1253425 43,34.5 C43,35.8746575 41.9593824,37 40.6868122,37" id="Fill-696" fill="#F2EFCD"></path>
                                <path d="M87,51 C85.3195082,51 84.3385073,51 82.6592395,51 L82.6592395,46 C84.3385073,46 85.3207321,46 87,46 L87,51 Z M78.1703803,51 C76.4911124,51 75.5094996,51 73.8302317,51 L73.8302317,46 C75.5107235,46 76.4911124,46 78.1703803,46 L78.1703803,51 Z M69.3407605,51 C67.6786281,51 66.6798798,51 65,51 L65,46 C66.6621325,46 67.6614927,46 69.3407605,46 L69.3407605,51 Z" id="Fill-697" fill="#F2EFCD"></path>
                                <path d="M81,67.0193252 L83,67.0193252 L83,64 L81,64 L81,67.0193252 Z M81,73.9067044 L83,73.9067044 L83,70.4632757 L81,70.4632757 L81,73.9067044 Z M81,80.7930404 L83,80.7930404 L83,77.3496116 L81,77.3496116 L81,80.7930404 Z M81,87.6798979 L83,87.6798979 L83,84.2364691 L81,84.2364691 L81,87.6798979 Z M81,94.5662338 L83,94.5662338 L83,91.122805 L81,91.122805 L81,94.5662338 Z M81,101.453091 L83,101.453091 L83,98.0101843 L81,98.0101843 L81,101.453091 Z M81,108.339427 L83,108.339427 L83,104.89652 L81,104.89652 L81,108.339427 Z M81,115.226285 L83,115.226285 L83,111.783378 L81,111.783378 L81,115.226285 Z M81,122.113142 L83,122.113142 L83,118.669714 L81,118.669714 L81,122.113142 Z M81,129 L83,129 L83,125.556571 L81,125.556571 L81,129 Z" id="Fill-698" fill="#0094CC"></path>
                            </g>
                            <g id="Clock" transform="translate(99.000000, 66.000000)">
                                <path d="M66,33 C66,51.2256745 51.2256745,66 33,66 C14.7743255,66 0,51.2256745 0,33 C0,14.7748201 14.7743255,0 33,0 C51.2256745,0 66,14.7748201 66,33" id="Fill-564" fill="#CC8944"></path>
                                <g id="Group-567">
                                    <mask id="mask-35" fill="white">
                                        <use xlink:href="#path-34"></use>
                                    </mask>
                                    <g id="Clip-566"></g>
                                    <path d="M0.0394029851,33.0896418 C0.0394029851,51.2391493 14.7519851,65.9517313 32.9014925,65.9517313 L32.9014925,0.227552239 C14.7519851,0.227552239 0.0394029851,14.9406269 0.0394029851,33.0896418" id="Fill-565" fill="url(#linearGradient-36)" mask="url(#mask-35)"></path>
                                </g>
                                <path d="M58,33 C58,46.8072542 46.8072542,58 33,58 C19.1927458,58 8,46.8072542 8,33 C8,19.1932402 19.1927458,8 33,8 C46.8072542,8 58,19.1932402 58,33" id="Fill-568" fill="#F2EFCD"></path>
                                <path d="M41.6768735,40.1181733 L35.5590118,34 C35.232707,34.6826742 34.6827445,35.23258 34,35.559322 L40.1178617,41.6774953 C40.333044,41.8926554 40.6150881,42 40.8971322,42 C41.1796472,42 41.4616913,41.8926554 41.6768735,41.6774953 C42.1077088,41.2467043 42.1077088,40.5484934 41.6768735,40.1181733" id="Fill-569" fill="#DF6655"></path>
                                <path d="M32.9993594,31.7950638 C33.3521247,31.7950638 33.6856716,31.8756085 34,32 L34,19.1161872 C34,18.4989957 33.5528507,18 32.9997865,18 C32.4471493,18 32,18.4989957 32,19.1161872 L32,31.9995234 C32.3139013,31.8756085 32.6470211,31.7950638 32.9993594,31.7950638" id="Fill-570" fill="#DF6655"></path>
                                <path d="M51.6519658,36.7927171 C51.5253247,37.4199505 51.3681321,38.0353586 51.1813734,38.6384486 L53.0642357,39.2208444 C53.270705,38.5551788 53.444159,37.8752244 53.5841047,37.1829519 L51.6519658,36.7927171 Z M50.5274718,40.4275173 C50.2786245,41.0143476 50.000704,41.5863962 49.6966668,42.1416924 L51.4248003,43.0891942 C51.7608673,42.4767424 52.0673683,41.8450746 52.3423322,41.1966542 L50.5274718,40.4275173 Z M48.6978283,43.7647142 C48.3371229,44.2894616 47.9512865,44.7954857 47.5417972,45.2803228 L49.0472,46.5520348 C49.4990673,46.0174329 49.9248179,45.4591804 50.3224807,44.8802337 L48.6978283,43.7647142 Z M46.2403998,46.6737368 C45.7840977,47.1157072 45.3056211,47.5355052 44.8074337,47.9301744 L46.0314667,49.4748537 C46.5813945,49.0392886 47.1091479,48.5766239 47.6122629,48.0888305 L46.2403998,46.6737368 Z M43.2566964,49.0383032 C42.7230298,49.3802513 42.1711309,49.6965779 41.6034634,49.9853122 L42.496357,51.742354 C43.1231565,51.4235638 43.7322164,51.0747176 44.3205801,50.6972936 L43.2566964,49.0383032 Z M39.8635036,50.76184 C39.2741544,50.9899696 38.6710077,51.1895215 38.0550491,51.3590174 L38.5778748,53.2589482 C39.2578931,53.072207 39.9246067,52.8514682 40.5755517,52.5996879 L39.8635036,50.7613472 L39.8635036,50.76184 Z M36.1953469,51.7709318 C35.5744606,51.8758813 34.9432262,51.9512676 34.3026293,51.994627 L34.4366619,53.9610751 C35.142304,53.9132812 35.8390764,53.8300114 36.5245152,53.714222 L36.1953469,51.7709318 Z M32.3961142,52.0296102 C31.7540389,52.0099013 31.1203407,51.9586584 30.4960051,51.8768668 L30.2402591,53.8309968 C30.9291472,53.9211647 31.6278906,53.9783203 32.3355039,54 L32.3961142,52.0296102 Z M28.6220126,51.5354114 C27.999648,51.3890733 27.3891099,51.2121866 26.7918764,51.0067221 L26.1502939,52.8701916 C26.809616,53.0973358 27.4842139,53.2924532 28.1711309,53.4540655 L28.6220126,51.5354114 Z M25.0243216,50.296219 C24.4453205,50.0291644 23.8820879,49.7340247 23.336595,49.4117854 L22.3352927,51.1097007 C22.9374538,51.4649523 23.5593256,51.7911334 24.1984443,52.0857803 L25.0243216,50.296219 Z M21.7454507,48.3627832 C21.2319876,47.9863446 20.738728,47.5847773 20.2661645,47.1600521 L18.9480131,48.6254033 C19.4688677,49.0939806 20.0133751,49.5369365 20.5795643,49.9518072 L21.7454507,48.3627832 Z M18.9140122,45.8164029 C18.4867833,45.3468401 18.0822217,44.8555977 17.7027912,44.3451391 L16.1205167,45.5202778 C16.5388758,46.0839502 16.9853226,46.6254502 17.4569005,47.1432996 L18.9140122,45.8164029 Z M16.6438351,42.7605495 C16.318609,42.2170786 16.0194995,41.6558698 15.7489705,41.078894 L13.9646616,41.9160263 C14.2632783,42.5531141 14.5934321,43.172464 14.9521664,43.7725977 L16.6438351,42.7605495 Z M15.0280525,39.3159395 C14.8186266,38.7197475 14.6377811,38.1107448 14.48798,37.4894241 L12.5721024,37.9520888 C12.737672,38.6379559 12.9367499,39.3110123 13.1683503,39.9692871 L15.0280525,39.3159395 Z M14.1346662,35.6175784 C14.0489247,34.9942868 13.9937348,34.360648 13.970082,33.7191258 L12,33.7915557 C12.0261166,34.4991025 12.0872197,35.1972877 12.181831,35.8856184 L14.1346662,35.6175784 Z M13.9937348,31.8122969 C14.0331562,31.1717601 14.1041146,30.5400922 14.2056246,29.9187715 L12.2601809,29.6014594 C12.1483228,30.2878192 12.0699729,30.9845262 12.0261166,31.6905949 L13.9937348,31.8122969 Z M14.6062441,28.0567802 C14.7718137,27.4394012 14.9674422,26.834833 15.1921439,26.244061 L13.3496885,25.5443976 C13.1018268,26.1962671 12.8855021,26.8639035 12.7021928,27.5458289 L14.6062441,28.0567802 Z M15.9579036,24.4998299 C16.2427229,23.9297521 16.5556299,23.3764268 16.8946535,22.8408395 L15.2295942,21.7869101 C14.8550913,22.3776821 14.5096618,22.9886557 14.1947837,23.61786 L15.9579036,24.4998299 Z M17.9935236,21.2833496 C18.3852733,20.7822527 18.8021541,20.3013573 19.2417022,19.8426344 L17.8180986,18.4792764 C17.333216,18.9853005 16.8739573,19.5159606 16.4413079,20.0683005 L17.9935236,21.2828568 L17.9935236,21.2833496 Z M20.6268699,18.532983 C21.1092887,18.1200831 21.6128964,17.7313265 22.1352293,17.3681914 L21.0097497,15.7500968 C20.4332125,16.1511714 19.8778642,16.5798383 19.345676,17.0351122 L20.6268699,18.532983 Z M23.7519975,16.3595922 C24.3053747,16.0516418 24.8759987,15.7707911 25.4614058,15.5180254 L24.680863,13.7082625 C24.0343529,13.9871423 23.4045968,14.2975563 22.7940586,14.6370409 L23.7519975,16.3595922 Z M27.2462075,14.8528525 C27.8478758,14.6626623 28.4628489,14.5015427 29.0891556,14.3709717 L28.6870578,12.4414777 C27.9957059,12.5853521 27.3166731,12.763717 26.6519306,12.973616 L27.2462075,14.8528525 Z M30.9710323,14.0763248 C31.5968463,14.0107929 32.2320228,13.9748243 32.8745908,13.9708826 L32.8627644,12 C32.1546584,12.0044345 31.4544367,12.0438521 30.764563,12.1167748 L30.9710323,14.0768175 L30.9710323,14.0763248 Z M34.7796276,14.0531669 C35.4177607,14.1127861 36.047024,14.2034467 36.6654465,14.3241633 L37.0433987,12.3902347 C36.3604238,12.2567075 35.6661152,12.1561924 34.9619514,12.0906606 L34.7796276,14.0531669 Z M38.5143078,14.7833789 C39.1253388,14.9681491 39.7235578,15.1829753 40.3074865,15.4258866 L41.065362,13.606762 C40.4208229,13.3382293 39.7600225,13.1012306 39.0849319,12.8967516 L38.5143078,14.7833789 Z M42.027243,16.2462665 C42.5875189,16.5487969 43.1315336,16.8794125 43.6563303,17.2351568 L44.7616064,15.603266 C44.1826053,15.2105677 43.5824153,14.8464471 42.9639928,14.5123825 L42.027243,16.2462665 Z M45.17898,18.381225 C45.667312,18.788705 46.1354405,19.2203282 46.580409,19.6736312 L47.9872585,18.293028 C47.4964626,17.7929166 46.9805357,17.3174411 46.4419415,16.8680799 L45.17898,18.381225 Z M47.8463271,21.099072 C48.2434972,21.5937636 48.6165218,22.1091494 48.9639224,22.6427658 L50.6161698,21.5686348 C50.2332899,20.9793409 49.8218296,20.411234 49.383267,19.8652996 L47.8463271,21.099072 Z M49.9213685,24.2899309 C50.2116082,24.8526179 50.4742529,25.4315646 50.7083172,26.0248003 L52.5419028,25.3014864 C52.2836929,24.6461679 51.9934532,24.0071093 51.672662,23.3862812 L49.9213685,24.2899309 Z M51.3168843,27.8291433 C51.4878744,28.4366678 51.6297913,29.0560176 51.7406638,29.6862073 L53.6821654,29.3452447 C53.5594664,28.6495231 53.4032593,27.9651341 53.2140368,27.2945414 L51.3168843,27.829636 L51.3168843,27.8291433 Z M51.9762064,31.5767764 C52.0111928,32.0483101 52.0289325,32.5242782 52.0289325,33.0046808 C52.0289325,33.6476813 51.9969026,34.2827982 51.934814,34.9085534 L53.8960262,35.103178 C53.9650136,34.4128764 54,33.7127204 54,33.0046808 C54,32.4754989 53.9802893,31.9507514 53.9418535,31.4314238 L51.9762064,31.5772692 L51.9762064,31.5767764 Z" id="Fill-571" fill="#513F4C"></path>
                                <path d="M36,33.4997509 C36,35.4327094 34.4327094,37 32.4997509,37 C30.5667924,37 29,35.4327094 29,33.4997509 C29,31.5667924 30.5667924,30 32.4997509,30 C34.4327094,30 36,31.5667924 36,33.4997509" id="Fill-572" fill="#DF6655"></path>
                            </g>
                        </g>
                    </g>
                </g>
            </g>
        </g>
    </g>
</svg>