<?xml version="1.0" encoding="UTF-8"?>
<svg width="24px" height="32px" viewBox="0 0 24 32" version="1.1" xmlns="http://www.w3.org/2000/svg" xmlns:xlink="http://www.w3.org/1999/xlink">
    <!-- Generator: Sketch 52.6 (67491) - http://www.bohemiancoding.com/sketch -->
    <title>quality_check@1,5x</title>
    <desc>Created with Sketch.</desc>
    <g id="Alzagro-Landing" stroke="none" stroke-width="1" fill="none" fill-rule="evenodd">
        <g id="Alzagro_Web_UX_draft" transform="translate(-150.000000, -1304.000000)" fill="#0094CC">
            <g id="The-solution" transform="translate(149.000000, 865.000000)">
                <g id="Feature_1" transform="translate(0.000000, 438.000000)">
                    <g id="quality_check" transform="translate(1.000000, 1.000000)">
                        <path d="M19.3124324,27.52 C19.1091892,27.8140541 18.7372973,28.16 18.1102703,28.16 L5.61297297,28.16 C4.85621622,28.16 4.41081081,27.6454054 4.25945946,27.4248649 C3.91351351,26.9232432 3.8227027,26.3437838 4.03027027,25.7989189 L9.00324324,12.1167568 C9.07675676,11.9221622 8.94702703,11.6972973 8.94702703,11.4940541 L8.94702703,3.51135135 L13.7037838,3.51135135 L13.7037838,11.4940541 C13.7037838,11.7059459 13.9372973,11.8918919 14.0151351,12.0908108 L19.4378378,25.7643243 C19.6627027,26.3610811 19.6627027,27.0140541 19.3124324,27.52 Z M22.707027,24.5448649 C22.7027027,24.5405405 22.5340541,24.5362162 22.5340541,24.5318919 L17.1632432,11.1697297 L17.1632432,3.51135135 L19.5978378,3.51135135 C20.5491892,3.51135135 21.3189189,2.72864865 21.3189189,1.78162162 C21.3189189,0.83027027 20.5491892,0.0518918919 19.5978378,0.0518918919 L3.78378378,0.0518918919 C2.83243243,0.0518918919 2.0627027,0.83027027 2.0627027,1.78162162 C2.0627027,2.72864865 2.83243243,3.51135135 3.78378378,3.51135135 L5.48756757,3.51135135 L5.48756757,11.1783784 L0.648648649,24.5059459 C0.0389189189,26.1059459 0.371891892,27.9567568 1.36216216,29.3881081 C2.32216216,30.7805405 3.95675676,31.6194595 5.61297297,31.6194595 L18.1102703,31.6194595 C19.7405405,31.6194595 21.1978378,30.8367568 22.1318919,29.4832432 C23.1264865,28.0475676 23.3340541,26.1967568 22.707027,24.5448649 Z" id="Fill-510"></path>
                    </g>
                </g>
            </g>
        </g>
    </g>
</svg>