<?xml version="1.0" encoding="UTF-8"?>
<svg width="30px" height="32px" viewBox="0 0 30 32" version="1.1" xmlns="http://www.w3.org/2000/svg" xmlns:xlink="http://www.w3.org/1999/xlink">
    <!-- Generator: Sketch 52.6 (67491) - http://www.bohemiancoding.com/sketch -->
    <title>physics_2@1,5x</title>
    <desc>Created with Sketch.</desc>
    <g id="Alzagro-Landing" stroke="none" stroke-width="1" fill="none" fill-rule="evenodd">
        <g id="Alzagro_Web_UX_draft" transform="translate(-568.000000, -3621.000000)" fill="#282828" fill-rule="nonzero">
            <g id="Prices" transform="translate(149.000000, 3272.000000)">
                <g id="Elements/Price" transform="translate(390.000000, 321.000000)">
                    <g id="Feature_1">
                        <g id="header">
                            <g id="physics_2" transform="translate(29.000000, 28.000000)">
                                <circle id="Oval" cx="20" cy="7" r="1"></circle>
                                <circle id="Oval" cx="20" cy="25" r="1"></circle>
                                <path d="M29.5354278,8.6988125 C29.0458035,7.6574375 27.7993244,6.375375 24.6414237,6.1815625 C23.9351623,6.1378125 23.3288085,6.66175 23.2845473,7.35075 C23.2402221,8.03975 23.7759625,8.633375 24.4810726,8.676625 C25.9393918,8.7661875 26.9342469,9.154625 27.2106879,9.7425625 C27.3680968,10.0773125 27.4513106,10.3091875 27.4405651,10.5756875 C27.4087123,11.3624375 26.6785293,12.6154375 25.2676055,14.3085625 C23.3832397,12.6221875 21.0563891,11.0365625 18.4461896,9.667375 C15.8494221,8.3051875 13.2837397,7.434625 11.2829642,6.82425 C11.3821043,6.56375 11.4857857,6.31025 11.5940723,6.0645 C12.5770945,3.8324375 13.8380289,2.5 14.967139,2.5 C15.902446,2.5 16.7235821,3.393375 17.2477455,4.1428125 C17.6463527,4.7128125 18.4423519,4.859 19.0256796,4.4695625 C19.6090073,4.0800625 19.7586769,3.30225 19.3600696,2.73225 C17.7806716,0.474 16.099447,0 14.967139,0 C12.7182573,0 10.6856929,1.8026875 9.24393974,5.076 C9.07859961,5.4513125 8.92285368,5.8418125 8.77670195,6.245625 C6.36292786,5.8870625 4.46628143,6.13525 4.36451889,6.1491875 C4.35620391,6.1503125 4.34788893,6.1515625 4.33957396,6.1528125 C2.03709264,6.5120625 1.00264545,7.59075 0.540268719,8.432375 C0.232614541,8.9923125 0.0723913152,9.5984375 0.0640763374,10.234 C0.0523074458,11.1300625 0.333865386,12.127625 0.900754987,13.199125 C1.22523101,13.812375 1.99698887,14.052375 2.62464177,13.7354375 C3.25223071,13.418375 3.49790632,12.6641875 3.17349426,12.0509375 C2.80673978,11.3578125 2.61613491,10.7405625 2.62240312,10.266 C2.6254093,10.0330625 2.68175927,9.820125 2.79452316,9.614875 C3.1340301,8.9968125 4.02827398,8.7350625 4.72577269,8.62425 C4.85919611,8.608 6.26052571,8.4495 8.05387454,8.6720625 C7.51448832,10.909125 7.22774951,13.4118125 7.22774951,16 C7.22774951,18.6695 7.65955271,21.153625 8.11092808,23.17025 C7.84612801,23.20675 7.5852296,23.2371875 7.32919224,23.2608125 C4.93300753,23.4815 3.15385812,23.068875 2.68604468,22.18375 C2.60251113,22.02575 2.56080832,21.8191875 2.55856968,21.5521875 C2.55556349,21.1974375 2.62918303,20.825125 2.77731755,20.4456875 C3.02919742,19.8006875 2.69832526,19.0783125 2.03824395,18.8321875 C1.37829056,18.586125 0.638897148,18.909375 0.387017283,19.554375 C0.124647753,20.226125 -0.00551363058,20.90525 0.000178931139,21.572875 C0.00587149286,22.24125 0.140829979,22.816375 0.412857675,23.3309375 C1.27224261,24.9569375 3.26847689,25.82 6.10548336,25.82 C6.57112211,25.82 7.059723,25.7966875 7.56936718,25.74975 C7.95716495,25.714 8.35398127,25.664875 8.75815316,25.6033125 C9.5168629,27.834 10.5394772,29.23075 10.6846695,29.4225 C12.2351571,31.5523125 13.8688583,32 14.967139,32 C16.0993831,32 17.7806076,31.526 19.3600057,29.267875 C19.7586129,28.697875 19.6089433,27.9200625 19.0256796,27.5305625 C18.4424159,27.1410625 17.6464167,27.287375 17.2477455,27.85725 C16.7235821,28.6066875 15.902446,29.5 14.967139,29.5 C14.066371,29.5 13.2712673,28.6649375 12.7629023,27.9644375 C12.7550351,27.953625 12.7470399,27.943 12.7389168,27.9324375 C12.7289388,27.9195625 11.9260957,26.8700625 11.278295,25.08075 C13.5500109,24.49325 15.9632733,23.57275 18.3364319,22.375125 C20.8518406,21.1056875 23.1798425,19.5909375 25.0688136,17.9945 C25.1256752,17.9464375 25.1760128,17.893875 25.2220011,17.838875 C26.5302029,19.331625 27.2608976,20.7263125 27.2476576,21.734 C27.2434361,22.0561875 27.2101762,22.257 27.1397548,22.385125 C26.7973696,23.0083125 25.8911009,23.26925 25.1910438,23.3785 C24.4934171,23.4873125 24.0181202,24.1281875 24.1294769,24.8099375 C24.2299603,25.4249375 24.77344,25.863125 25.3911789,25.8630625 C25.4581464,25.8630625 25.5261374,25.857875 25.5943842,25.84725 C27.8970573,25.4880625 28.9315685,24.4093125 29.3940092,23.5675625 C29.7466282,22.9256875 29.7993963,22.267625 29.8059844,21.7660625 C29.8279871,20.0883125 28.884429,18.14175 27.069781,16.1045 C29.0514321,13.76975 29.93896,12.1085 29.996973,10.6744375 C30.0295293,9.8699375 29.7944074,9.2494375 29.5354278,8.6988125 Z M10.5485598,9.2191875 C10.9003473,9.3266875 11.2704917,9.4429375 11.6549635,9.5685 C11.6320014,9.5800625 11.6089113,9.5913125 11.5859492,9.602875 C11.1576639,9.819 10.7344955,10.042625 10.3177232,10.272375 C10.3878888,9.91425 10.4650902,9.563125 10.5485598,9.2191875 Z M10.6173182,22.667625 C10.5511182,22.37225 10.485302,22.0665 10.4214046,21.7514375 C10.7730002,21.949875 11.1286254,22.1441875 11.4881522,22.33275 C11.526657,22.3529375 11.5652897,22.37275 11.6038584,22.3928125 C11.2717709,22.492 10.9427537,22.583625 10.6173182,22.667625 Z M19.9524798,18.5868125 C19.0645681,19.1395625 18.1296448,19.66575 17.162485,20.1538125 C16.4123461,20.532375 15.6597766,20.88075 14.9114286,21.1970625 C14.1717794,20.870625 13.4279726,20.5128125 12.6982374,20.13 C11.7363224,19.6254375 10.8023585,19.080875 9.91879613,18.5108125 C9.83609408,17.6984375 9.78620422,16.8574375 9.78620422,15.9999375 C9.78620422,15.1319375 9.82087128,14.276625 9.88777487,13.4413125 C10.8008874,12.8694375 11.7652329,12.326 12.7599601,11.8240625 C13.4889278,11.4561875 14.2301761,11.1126875 14.9684182,10.8 C15.7139519,11.1168125 16.4752201,11.4708125 17.2360406,11.869875 C18.1795347,12.36475 19.0913679,12.8968125 19.9559977,13.4541875 C20.0264831,14.26675 20.0839844,15.124625 20.0839844,15.9999375 C20.0839844,16.89 20.0245643,17.762125 19.9524798,18.5868125 Z M23.3952004,16.1035625 C23.1487573,16.3118125 22.8931037,16.5184375 22.6306702,16.7235 C22.6377699,16.4848125 22.6424391,16.244 22.6424391,16 C22.6424391,15.792875 22.6387933,15.58825 22.6335485,15.3849375 C22.912548,15.611 23.1822091,15.838875 23.4418922,16.0679375 C23.4263496,16.079875 23.4102953,16.09075 23.3952004,16.1035625 Z" id="Shape"></path>
                                <circle id="Oval" cx="4" cy="16" r="1"></circle>
                            </g>
                        </g>
                    </g>
                </g>
            </g>
        </g>
    </g>
</svg>