<?xml version="1.0" encoding="UTF-8"?>
<svg width="52px" height="81px" viewBox="0 0 52 81" version="1.1" xmlns="http://www.w3.org/2000/svg" xmlns:xlink="http://www.w3.org/1999/xlink">
    <!-- Generator: Sketch 52.6 (67491) - http://www.bohemiancoding.com/sketch -->
    <title>quality@1,5x</title>
    <desc>Created with Sketch.</desc>
    <g id="Alzagro-Landing" stroke="none" stroke-width="1" fill="none" fill-rule="evenodd">
        <g id="Alzagro_Web_UX_draft" transform="translate(-253.000000, -2360.000000)">
            <g id="Advantages" transform="translate(0.000000, 2085.000000)">
                <g id="elements" transform="translate(150.000000, 272.000000)">
                    <g id="element_1" transform="translate(0.000000, 3.000000)">
                        <g id="quality" transform="translate(103.000000, 0.000000)">
                            <path d="M26.363,8.65 C16.645,8.65 8.739,16.56 8.739,26.28 C8.739,36 16.645,43.9 26.363,43.9 C36.082,43.9 43.987,36 43.987,26.28 C43.987,16.56 36.082,8.65 26.363,8.65 Z M26.363,51.85 C12.261,51.85 0.788,40.38 0.788,26.28 C0.788,12.17 12.261,0.7 26.363,0.7 C40.465,0.7 51.938,12.17 51.938,26.28 C51.938,40.38 40.465,51.85 26.363,51.85 Z" id="Fill-185" fill="#0094CC"></path>
                            <path d="M39.086,80.61 C38.24,80.61 37.401,80.34 36.7,79.81 L23.978,70.27 C22.222,68.95 21.865,66.46 23.183,64.71 C24.501,62.95 26.992,62.6 28.749,63.91 L35.109,68.68 L35.109,45.36 C35.109,43.16 36.889,41.38 39.085,41.38 C41.281,41.38 43.06,43.16 43.06,45.36 L43.06,76.63 C43.06,78.14 42.209,79.51 40.863,80.19 C40.3,80.47 39.691,80.61 39.086,80.61" id="Fill-186" fill="#0094CC"></path>
                            <path d="M13.641,80.61 C13.036,80.61 12.427,80.47 11.864,80.19 C10.517,79.51 9.666,78.14 9.666,76.63 L9.666,45.36 C9.666,43.16 11.446,41.38 13.642,41.38 C15.838,41.38 17.617,43.16 17.617,45.36 L17.617,68.68 L23.978,63.91 C25.735,62.6 28.226,62.95 29.544,64.71 C30.861,66.46 30.505,68.95 28.749,70.27 L16.027,79.81 C15.326,80.34 14.486,80.61 13.641,80.61" id="Fill-187" fill="#0094CC"></path>
                            <path d="M24.244,33.52 C23.419,33.52 22.599,33.26 21.907,32.76 C20.682,31.87 20.069,30.36 20.324,28.87 L20.376,28.57 L20.158,28.36 C19.074,27.3 18.683,25.72 19.151,24.28 C19.618,22.84 20.862,21.79 22.36,21.57 L22.663,21.53 L22.799,21.25 C23.468,19.9 24.85,19.04 26.363,19.04 C26.363,19.04 26.363,19.04 26.364,19.04 C27.878,19.04 29.26,19.9 29.929,21.26 L30.064,21.53 L30.367,21.57 C31.865,21.79 33.108,22.84 33.576,24.28 C34.043,25.72 33.652,27.3 32.568,28.36 L32.351,28.57 L32.402,28.87 C32.658,30.36 32.045,31.87 30.821,32.76 C29.597,33.65 27.972,33.76 26.634,33.06 L26.363,32.92 L26.093,33.06 C25.512,33.37 24.876,33.52 24.244,33.52" id="Fill-188" fill="#45C5FF"></path>
                        </g>
                    </g>
                </g>
            </g>
        </g>
    </g>
</svg>