<?xml version="1.0" encoding="UTF-8"?>
<svg width="39px" height="32px" viewBox="0 0 39 32" version="1.1" xmlns="http://www.w3.org/2000/svg" xmlns:xlink="http://www.w3.org/1999/xlink">
    <!-- Generator: Sketch 52.6 (67491) - http://www.bohemiancoding.com/sketch -->
    <title>quality map@1,5x</title>
    <desc>Created with Sketch.</desc>
    <g id="Alzagro-Landing" stroke="none" stroke-width="1" fill="none" fill-rule="evenodd">
        <g id="Alzagro_Web_UX_draft" transform="translate(-445.000000, -1303.000000)" fill="#0094CC">
            <g id="The-solution" transform="translate(149.000000, 865.000000)">
                <g id="Feature_1" transform="translate(294.000000, 438.000000)">
                    <g id="quality-map" transform="translate(2.000000, 0.000000)">
                        <path d="M12.8253968,24.848254 C12.967619,24.848254 13.1098413,24.8634921 13.2469841,24.8939683 L26.6666667,27.7638095 L34.3822222,25.3815873 L34.3822222,4.83047619 L27.3574603,6.99936508 C27.0273016,7.10095238 26.6463492,7.11619048 26.3060317,7.04507937 L12.952381,4.16507937 L4.19555556,6.6031746 L4.1752381,27.1898413 L12.2819048,24.9193651 C12.4596825,24.8736508 12.6425397,24.848254 12.8253968,24.848254 Z M2.14857143,31.8679365 C1.71174603,31.8679365 1.28,31.7257143 0.92952381,31.4565079 C0.421587302,31.0755556 0.126984127,30.4761905 0.126984127,29.8463492 L0.152380952,5.06920635 C0.157460317,4.16 0.756825397,3.36761905 1.63047619,3.12380952 L12.3326984,0.142222222 C12.647619,0.0507936508 12.9828571,0.0457142857 13.3028571,0.111746032 L26.615873,2.9815873 L35.6977778,0.157460317 C36.312381,-0.0304761905 37.0438095,0.0812698413 37.5619048,0.462222222 C38.0749206,0.843174603 38.4457143,1.44253968 38.4457143,2.08761905 L38.4457143,26.8647619 C38.4457143,27.7485714 37.8057143,28.5307937 36.9625397,28.7949206 L27.3371429,31.7765079 C27.0069841,31.8780952 26.6412698,31.8984127 26.3009524,31.8222222 L12.8965079,28.9473016 L2.69714286,31.791746 C2.51936508,31.8425397 2.33142857,31.8679365 2.14857143,31.8679365 Z" id="Fill-242"></path>
                        <path d="M14.6387302,22.3238095 C14.1206349,22.3238095 13.607619,22.1257143 13.2114286,21.7295238 L8.07111111,16.5892063 C7.28380952,15.8019048 7.28380952,14.5219048 8.07111111,13.7346032 C8.8584127,12.9473016 10.1384127,12.9473016 10.9257143,13.7346032 L16.0660317,18.8749206 C16.8533333,19.6622222 16.8533333,20.9422222 16.0660317,21.7295238 C15.6698413,22.1257143 15.1568254,22.3238095 14.6387302,22.3238095" id="Fill-243"></path>
                        <path d="M9.4984127,22.3238095 C8.98031746,22.3238095 8.46222222,22.1257143 8.07111111,21.7295238 C7.28380952,20.9422222 7.28380952,19.6622222 8.07111111,18.8749206 L13.2114286,13.7346032 C13.9987302,12.9473016 15.2787302,12.9473016 16.0660317,13.7346032 C16.8533333,14.5219048 16.8533333,15.8019048 16.0660317,16.5892063 L10.9257143,21.7295238 C10.5295238,22.1257143 10.0165079,22.3238095 9.4984127,22.3238095" id="Fill-244"></path>
                    </g>
                </g>
            </g>
        </g>
    </g>
</svg>