<?xml version="1.0" encoding="UTF-8"?>
<svg width="89px" height="70px" viewBox="0 0 89 70" version="1.1" xmlns="http://www.w3.org/2000/svg" xmlns:xlink="http://www.w3.org/1999/xlink">
    <!-- Generator: Sketch 52.6 (67491) - http://www.bohemiancoding.com/sketch -->
    <title>truck@1,5x</title>
    <desc>Created with Sketch.</desc>
    <g id="Alzagro-Landing" stroke="none" stroke-width="1" fill="none" fill-rule="evenodd">
        <g id="Alzagro_Web_UX_draft" transform="translate(-822.000000, -2368.000000)">
            <g id="Advantages" transform="translate(0.000000, 2085.000000)">
                <g id="elements" transform="translate(150.000000, 272.000000)">
                    <g id="element_1" transform="translate(586.000000, 11.000000)">
                        <g id="truck" transform="translate(86.000000, 0.000000)">
                            <path d="M59.3770298,49.8636831 L79.6229702,49.8636831 L79.6229702,36.7262776 C79.6229702,33.0940429 76.5896761,30.1363169 72.8605643,30.1363169 L59.3770298,30.1363169 L59.3770298,49.8636831 Z M84.3120748,59 L54.6879252,59 C52.0980677,59 50,56.9546417 50,54.431267 L50,25.568733 C50,23.0453583 52.0980677,21 54.6879252,21 L72.8605643,21 C81.7599565,21 89,28.0541881 89,36.7262776 L89,54.431267 C89,56.9546417 86.900753,59 84.3120748,59 Z" id="Fill-314" fill="#0094CC"></path>
                            <path d="M9.32004689,49.8343135 L50.6787808,49.8343135 L50.6787808,9.16568649 L9.32004689,9.16568649 L9.32004689,49.8343135 Z M55.3388042,59 L4.66002345,59 C2.0855803,59 0,56.9480667 0,54.4165804 L0,4.58226686 C0,2.05078056 2.0855803,0 4.66002345,0 L55.3388042,0 C57.9132474,0 60,2.05078056 60,4.58226686 L60,54.4165804 C60,56.9480667 57.9132474,59 55.3388042,59 Z" id="Fill-315" fill="#0094CC"></path>
                            <path d="M36,55.5005829 C36,61.2993949 31.2993949,66 25.5005829,66 C19.7017709,66 15,61.2993949 15,55.5005829 C15,49.7017709 19.7017709,45 25.5005829,45 C31.2993949,45 36,49.7017709 36,55.5005829" id="Fill-316" fill="#45C5FF"></path>
                            <path d="M25.9988446,49.1865973 C22.7936373,49.1865973 20.1869512,51.7943385 20.1869512,55.0005777 C20.1869512,58.2068169 22.7936373,60.8134027 25.9988446,60.8134027 C29.2052072,60.8134027 31.8130488,58.2068169 31.8130488,55.0005777 C31.8130488,51.7943385 29.2052072,49.1865973 25.9988446,49.1865973 Z M25.9988446,70 C17.7281621,70 11,63.2720971 11,55.0005777 C11,46.7290583 17.7281621,40 25.9988446,40 C34.2706825,40 41,46.7290583 41,55.0005777 C41,63.2720971 34.2706825,70 25.9988446,70 Z" id="Fill-317" fill="#0094CC"></path>
                            <path d="M73,55.5005829 C73,61.2993949 68.2993949,66 62.4994171,66 C56.7006051,66 52,61.2993949 52,55.5005829 C52,49.7017709 56.7006051,45 62.4994171,45 C68.2993949,45 73,49.7017709 73,55.5005829" id="Fill-318" fill="#45C5FF"></path>
                            <path d="M61.9994223,49.1865973 C58.7940916,49.1865973 56.187305,51.7943385 56.187305,55.0005777 C56.187305,58.2068169 58.7940916,60.8134027 61.9994223,60.8134027 C65.2059084,60.8134027 67.812695,58.2068169 67.812695,55.0005777 C67.812695,51.7943385 65.2059084,49.1865973 61.9994223,49.1865973 Z M61.9994223,70 C53.7284212,70 47,63.2720971 47,55.0005777 C47,46.7290583 53.7284212,40 61.9994223,40 C70.2715788,40 77,46.7290583 77,55.0005777 C77,63.2720971 70.2715788,70 61.9994223,70 Z" id="Fill-319" fill="#0094CC"></path>
                        </g>
                    </g>
                </g>
            </g>
        </g>
    </g>
</svg>